<svg fill="none" height="24" viewBox="0 0 24 24" width="24" xmlns="http://www.w3.org/2000/svg"><path d="m10 19c-.28333 0-.52083-.0958-.7125-.2875s-.2875-.4292-.2875-.7125.09583-.5208.2875-.7125.42917-.2875.7125-.2875h10c.2833 0 .5208.0958.7125.2875s.2875.4292.2875.7125-.0958.5208-.2875.7125-.4292.2875-.7125.2875zm0-6c-.28333 0-.52083-.0958-.7125-.2875s-.2875-.4292-.2875-.7125.09583-.5208.2875-.7125.42917-.2875.7125-.2875h10c.2833 0 .5208.0958.7125.2875s.2875.4292.2875.7125-.0958.5208-.2875.7125-.4292.2875-.7125.2875zm0-6c-.28333 0-.52083-.09583-.7125-.2875s-.2875-.42917-.2875-.7125.09583-.52083.2875-.7125.42917-.2875.7125-.2875h10c.2833 0 .5208.09583.7125.2875s.2875.42917.2875.7125-.0958.52083-.2875.7125-.4292.2875-.7125.2875zm-5 13c-.55 0-1.02083-.1958-1.4125-.5875s-.5875-.8625-.5875-1.4125.19583-1.0208.5875-1.4125.8625-.5875 1.4125-.5875 1.02083.1958 1.4125.5875.5875.8625.5875 1.4125-.19583 1.0208-.5875 1.4125-.8625.5875-1.4125.5875zm0-6c-.55 0-1.02083-.1958-1.4125-.5875s-.5875-.8625-.5875-1.4125.19583-1.0208.5875-1.4125.8625-.5875 1.4125-.5875 1.02083.1958 1.4125.5875.5875.8625.5875 1.4125-.19583 1.0208-.5875 1.4125-.8625.5875-1.4125.5875zm0-6c-.55 0-1.02083-.19583-1.4125-.5875s-.5875-.8625-.5875-1.4125.19583-1.02083.5875-1.4125.8625-.5875 1.4125-.5875 1.02083.19583 1.4125.5875.5875.8625.5875 1.4125-.19583 1.02083-.5875 1.4125-.8625.5875-1.4125.5875z" fill="#fff"/></svg>