<svg fill="none" height="24" viewBox="0 0 24 24" width="24" xmlns="http://www.w3.org/2000/svg" xmlns:xlink="http://www.w3.org/1999/xlink"><filter id="a" color-interpolation-filters="sRGB" filterUnits="userSpaceOnUse" height="20" width="22" x="1" y="2"><feFlood flood-opacity="0" result="BackgroundImageFix"/><feColorMatrix in="SourceAlpha" result="hardAlpha" type="matrix" values="0 0 0 0 0 0 0 0 0 0 0 0 0 0 0 0 0 0 127 0"/><feOffset/><feGaussianBlur stdDeviation="1"/><feComposite in2="hardAlpha" operator="out"/><feColorMatrix type="matrix" values="0 0 0 0 0 0 0 0 0 0 0 0 0 0 0 0 0 0 0.6 0"/><feBlend in2="BackgroundImageFix" mode="normal" result="effect1_dropShadow_2537_41438"/><feBlend in="SourceGraphic" in2="effect1_dropShadow_2537_41438" mode="normal" result="shape"/></filter><g filter="url(#a)"><path d="m10 19c-.28333 0-.52083-.0958-.7125-.2875s-.2875-.4292-.2875-.7125.09583-.5208.2875-.7125.42917-.2875.7125-.2875h10c.2833 0 .5208.0958.7125.2875s.2875.4292.2875.7125-.0958.5208-.2875.7125-.4292.2875-.7125.2875zm0-6c-.28333 0-.52083-.0958-.7125-.2875s-.2875-.4292-.2875-.7125.09583-.5208.2875-.7125.42917-.2875.7125-.2875h10c.2833 0 .5208.0958.7125.2875s.2875.4292.2875.7125-.0958.5208-.2875.7125-.4292.2875-.7125.2875zm0-6c-.28333 0-.52083-.09583-.7125-.2875s-.2875-.42917-.2875-.7125.09583-.52083.2875-.7125.42917-.2875.7125-.2875h10c.2833 0 .5208.09583.7125.2875s.2875.42917.2875.7125-.0958.52083-.2875.7125-.4292.2875-.7125.2875zm-5 13c-.55 0-1.02083-.1958-1.4125-.5875s-.5875-.8625-.5875-1.4125.19583-1.0208.5875-1.4125.8625-.5875 1.4125-.5875 1.02083.1958 1.4125.5875.5875.8625.5875 1.4125-.19583 1.0208-.5875 1.4125-.8625.5875-1.4125.5875zm0-6c-.55 0-1.02083-.1958-1.4125-.5875s-.5875-.8625-.5875-1.4125.19583-1.0208.5875-1.4125.8625-.5875 1.4125-.5875 1.02083.1958 1.4125.5875.5875.8625.5875 1.4125-.19583 1.0208-.5875 1.4125-.8625.5875-1.4125.5875zm0-6c-.55 0-1.02083-.19583-1.4125-.5875s-.5875-.8625-.5875-1.4125.19583-1.02083.5875-1.4125.8625-.5875 1.4125-.5875 1.02083.19583 1.4125.5875.5875.8625.5875 1.4125-.19583 1.02083-.5875 1.4125-.8625.5875-1.4125.5875z" fill="#72f7ea"/></g></svg>