<svg fill="none" height="16" viewBox="0 0 16 16" width="16" xmlns="http://www.w3.org/2000/svg" xmlns:xlink="http://www.w3.org/1999/xlink"><linearGradient id="a" gradientUnits="userSpaceOnUse" x1="5.0773" x2="14.1945" y1="10.813" y2="3.95811"><stop offset=".06" stop-color="#02bbae"/><stop offset=".07" stop-color="#1ac2b3"/><stop offset=".09" stop-color="#3fccbb"/><stop offset=".12" stop-color="#5fd5c2"/><stop offset=".14" stop-color="#7addc8"/><stop offset=".18" stop-color="#90e4cd"/><stop offset=".21" stop-color="#a1e9d1"/><stop offset=".26" stop-color="#adecd4"/><stop offset=".32" stop-color="#b4eed5"/><stop offset=".49" stop-color="#b6efd6"/><stop offset=".98" stop-color="#fff"/></linearGradient><linearGradient id="b" gradientUnits="userSpaceOnUse" x1=".482793" x2="15.5192" y1="10.7352" y2="5.26284"><stop offset=".22" stop-color="#2a334c"/><stop offset="1" stop-color="#55bab0"/></linearGradient><linearGradient id="c" gradientUnits="userSpaceOnUse" x1="7.12728" x2="8.87481" y1="8.736" y2="7.25854"><stop offset="0" stop-color="#27354e" stop-opacity=".5"/><stop offset=".07" stop-color="#3c5062" stop-opacity=".58"/><stop offset=".19" stop-color="#5b7980" stop-opacity=".69"/><stop offset=".32" stop-color="#759d9a" stop-opacity=".78"/><stop offset=".44" stop-color="#8bbaaf" stop-opacity=".86"/><stop offset=".57" stop-color="#9cd0c0" stop-opacity=".92"/><stop offset=".7" stop-color="#a8e0cb" stop-opacity=".97"/><stop offset=".84" stop-color="#afe9d2" stop-opacity=".99"/><stop offset="1" stop-color="#b2edd5"/></linearGradient><path d="m14.809 8.24141c-.2035 1.99299-1.4225 4.40699-3.7267 5.18499-1.11921.3791-2.13866.2494-2.71522.1277 1.38055-.4449 2.25632-1.1451 2.71522-1.574.2833-.2674.6743-.6384 1.0234-1.2409.6404-1.10528.6803-2.18059.6664-2.67535-.014-.47681-.0539-1.47232-.7302-2.47182-.2055-.30324-.7681-1.05137-1.7935-1.49826-.78406-.34114-1.47433-.34713-1.84341-.34513-.58255 0-1.0015.10773-1.16509.15361-.43292.1217-.78803.29926-.78205.31921.00998.02793.61247-.30923 1.45437-.34514.14963-.00599.85786-.02594 1.65187.32718.19152.08579.46881.21147.76811.46683.3431.29327.5306.6005.6663.82594.1137.18952.2833.47681.397.88977.024.08778.2135.80399.0419 1.50424-.0579.2394-.1516.4409-.1596.46085-.0379.08379-.1077.22145-.2434.41696-.1277.18354-.3451.46284-.6883.77406.0579-.12369.1138-.24538.1716-.36907-.2454.22543-.56259.37705-.91371.41296-.40898.41297-.97556.66836-1.602.66836-1.24489 0-2.25636-1.0095-2.25636-2.25639 0-1.24688 1.00948-2.25636 2.25636-2.25636.62644 0 1.19302.25537 1.602.66833.51071.05187.94961.34514 1.20101.76409-.0818-.50274-.2853-.97556-.6065-1.36857-1.01147-1.23891-2.78504-1.19103-3.89227-.70424-.19352.08379-1.26483.57655-1.7157 1.68977-.30325.74614-.2035 1.46634-.03791 2.65137.0778.5606.18553 1.0175.26932 1.3327-.19751-.1596-.45486-.401-.69227-.7422-1.1212-1.61793-.7601-4.04586.26933-5.67179.18354-.29128 1.64589-2.51571 4.4429-2.68928 2.7192-.16758 4.417 1.74364 4.6344 1.99701 1.5741 1.83541 1.3905 4.00199 1.3327 4.57057z" fill="url(#a)"/><path d="m8 0c-4.41696 0-8 3.58105-8 8 0 4.419 3.58105 8 8 8 4.419 0 8-3.581 8-8 0-4.41895-3.581-8-8-8zm1.59601 8c0 .62244-.35711 1.1611-.87781 1.42444-.21546.10972-.46084.17157-.7182.17157-.88179 0-1.59601-.71421-1.59601-1.59601s.71422-1.59601 1.59601-1.59601c.25935 0 .50274.06185.7182.17157.5207.26334.87781.802.87781 1.42444zm-3.1601 5.2628c-.29526-.0618-2.26234-.5147-3.44339-2.394-.15761-.2513-.74614-1.23488-.81197-2.62541-.04389-.94962.17556-1.6778.24339-1.89127.14963-.46484.34713-.8419.52469-1.18304.21347-.40699.34513-.59252.41895-.68629.22943-.30324.46484-.5187.63641-.65636-.36309.38105-1.09327 1.25287-1.38254 2.58554-.2394 1.09925-.06584 1.98703.01197 2.31821.31122 1.32472 1.05336 2.13262 1.21695 2.30422.26135.2773.89975.9317 1.97108 1.2549 1.34264.403 2.46583.0119 2.81695-.1157.35911-.1297 1.09926-.4509 1.7676-1.1532.2115-.2234.3671-.4309.4748-.5885-.1436.1536-1.49027 1.5422-3.35561 1.2669-.26135-.038-1.26285-.2015-2.04888-1.0754-.17955-.1995-.9616-1.11916-.83791-2.44584.08978-.96758.61247-1.61197.83791-1.85736.21147-.22943.9975-1.01147 2.20249-1.03142.15761-.002 1.06135-.00399 1.80549.58853.21147.16957.401.37705.39102.39102-.01396.01596-.32918-.34514-.83192-.57656-.65835-.30125-1.29276-.21546-1.49825-.18554-.18753.02793-.54863.08379-.94763.31921-.49277.29127-.74414.6803-.86385.86982-.11571.18155-.34912.56459-.40897 1.1212-.01397.1217-.06783.71421.24339 1.37057.23142.48878.55262.77008.63441.83787.34913.2973.69227.413.87781.4749.12967.0418.74614.2354 1.53616.0837.71621-.1376 1.18704-.4828 1.46634-.69223.2733-.20548.6903-.52668.9855-1.10125.0419-.08379.0798-.16359.1098-.24139.0997-.24938.1376-.44888.1536-.53466.0878-.50474.004-.89976-.0579-1.17906-.1696-.76808-.5406-1.27681-.6344-1.40249-.1436-.19152-.4748-.62045-1.06932-.94165-.71422-.38503-1.38055-.37905-1.75362-.37107-.29526.00599-.84589.02195-1.47232.31322-.74015.34314-1.14713.86384-1.35661 1.13915-.18952.24938-.55262.73416-.70424 1.45237-.10773.51272-.07381.97556-.04389 1.35062.02195.28329.05785.51871.08977.69227-.1177-.32918-.25336-.80798-.29525-1.39651-.08579-1.2369.30324-2.18653.49875-2.5995.19352-.40499.7601-1.54613 2.08678-2.26633.23541-.12768 1.19103-.62045 2.50973-.5626.95762.0399 1.67582.35312 2.03692.53666.3551.18155 1.1451.6424 1.7795 1.55013.9816 1.40249.9058 2.89277.8699 3.41945-.0938 1.43641-.7103 2.48177-1.0893 3.00847-.9437 1.3187-2.1905 1.8993-2.92271 2.1626-.15761.0559-.29127.0978-.39302.1297-.57656.1755-1.63989.4888-2.97057.2055z" fill="url(#b)"/><path d="m8 9.14316c.63134 0 1.14314-.51181 1.14314-1.14315s-.5118-1.14314-1.14314-1.14314-1.14314.5118-1.14314 1.14314.5118 1.14315 1.14314 1.14315z" fill="url(#c)"/><path d="m8.00026 8.41896c.23152 0 .4192-.18757.4192-.41895s-.18768-.41896-.4192-.41896c-.23153 0-.41921.18758-.41921.41896s.18768.41895.41921.41895z" fill="#fff"/></svg>