<svg fill="none" height="48" viewBox="0 0 49 48" width="49" xmlns="http://www.w3.org/2000/svg" xmlns:xlink="http://www.w3.org/1999/xlink"><clipPath id="a"><path d="m.5 0h48v48h-48z"/></clipPath><g clip-path="url(#a)" fill="#001848"><path d="m45.7533 4.97567h-8.4067v-2.25787c0-.60666-.4919-1.09866-1.0987-1.09866-.6067 0-1.0986.49191-1.0986 1.09866v2.25797h-9.5503v-2.25797c0-.60666-.4919-1.09866-1.0986-1.09866-.6068 0-1.0987.49191-1.0987 1.09866v2.25797h-9.5508v-2.25797c0-.60666-.4919-1.09866-1.0986-1.09866-.6068 0-1.0987.49191-1.0987 1.09866v2.25797h-8.40691c-1.51453 0-2.74669 1.23215-2.74669 2.74668v35.91235c0 1.5145 1.23216 2.7467 2.74669 2.7467h42.50661c1.5145 0 2.7467-1.2322 2.7467-2.7467v-35.91253c0-1.51444-1.2322-2.7466-2.7467-2.7466zm.5494 38.65903c0 .3029-.2465.5494-.5494.5494h-42.50661c-.30291 0-.54938-.2465-.54938-.5494v-25.1119h43.60539zm0-27.3093h-43.60539v-8.60313c0-.30282.24647-.54938.54938-.54938h8.40691v3.24981c-.381.316-.6238.7929-.6238 1.3264 0 .9514.7712 1.7225 1.7225 1.7225s1.7224-.7712 1.7224-1.7225c0-.5336-.2428-1.0104-.6238-1.3264v-3.24971h9.5508v3.24981c-.381.316-.6238.7929-.6238 1.3264 0 .9514.7712 1.7225 1.7225 1.7225s1.7224-.7712 1.7224-1.7225c0-.5336-.2428-1.0104-.6238-1.3264v-3.24981h9.5502v3.24981c-.381.316-.6239.7929-.6239 1.3264 0 .9514.7712 1.7225 1.7225 1.7225s1.7225-.7712 1.7225-1.7225c0-.5336-.2428-1.0104-.6238-1.3264v-3.24981h8.4067c.3029 0 .5494.24646.5494.54937v8.60304z"/><path d="m39.2505 22.8789h-7.3752-7.3752-7.3753-7.37526c-.60675 0-1.09866.492-1.09866 1.0987v7.3752 7.3752c0 .6067.49191 1.0987 1.09866 1.0987h7.37526 7.3752 7.3752 7.3752c.6068 0 1.0987-.492 1.0987-1.0987v-7.3752-7.3752c.0001-.6067-.4918-1.0987-1.0986-1.0987zm-23.2245 14.7505h-5.1779v-5.1779h5.1779zm0-7.3752h-5.1779v-5.1779h5.1779zm7.3752 7.3752h-5.1779v-5.1779h5.1779zm0-7.3752h-5.1779v-5.1779h5.1779zm7.3753 7.3752h-5.1779v-5.1779h5.1779zm.0001-7.3752h-5.1779v-5.1779h5.1779zm7.3752 7.3752h-5.1779v-5.1779h5.1779zm0-7.3752h-5.1779v-5.1779h5.1779z"/></g></svg>