<svg xmlns="http://www.w3.org/2000/svg" xmlns:xlink="http://www.w3.org/1999/xlink" width="216" zoomAndPan="magnify" viewBox="0 0 162 36.000001" height="48" preserveAspectRatio="xMidYMid meet" version="1.0"><defs><g/><clipPath id="cc6c5ba6e9"><path d="M 5.691406 18 L 22.476562 18 L 22.476562 25.699219 L 5.691406 25.699219 Z M 5.691406 18 " clip-rule="nonzero"/></clipPath><clipPath id="4478679362"><path d="M 13 9.644531 L 15 9.644531 L 15 12 L 13 12 Z M 13 9.644531 " clip-rule="nonzero"/></clipPath></defs><g clip-path="url(#cc6c5ba6e9)"><path fill="#026071" d="M 16.222656 18.628906 C 16.289062 18.84375 16.332031 19.066406 16.332031 19.285156 L 16.332031 19.304688 C 19.589844 19.6875 21.648438 20.847656 21.648438 21.941406 C 21.648438 23.28125 18.578125 24.714844 14.003906 24.714844 C 9.429688 24.714844 6.359375 23.28125 6.359375 21.941406 C 6.359375 20.847656 8.417969 19.6875 11.675781 19.304688 L 11.675781 19.285156 C 11.675781 19.066406 11.714844 18.84375 11.78125 18.628906 C 8.238281 19.015625 5.691406 20.335938 5.691406 21.941406 C 5.691406 23.871094 9.34375 25.378906 14.003906 25.378906 C 18.660156 25.378906 22.3125 23.871094 22.3125 21.941406 C 22.3125 20.335938 19.769531 19.015625 16.222656 18.628906 Z M 16.222656 18.628906 " fill-opacity="1" fill-rule="nonzero"/></g><path fill="#026071" d="M 9.683594 21.5 C 9.683594 22.589844 11.855469 23.160156 14.003906 23.160156 C 16.152344 23.160156 18.324219 22.589844 18.324219 21.5 C 18.324219 20.796875 17.421875 20.308594 16.199219 20.050781 C 16.121094 20.273438 16.011719 20.480469 15.875 20.660156 C 17.039062 20.878906 17.660156 21.265625 17.660156 21.5 C 17.660156 21.835938 16.371094 22.496094 14.003906 22.496094 C 11.636719 22.496094 10.347656 21.835938 10.347656 21.5 C 10.347656 21.265625 10.96875 20.878906 12.132812 20.660156 C 11.996094 20.480469 11.886719 20.273438 11.808594 20.050781 C 10.585938 20.308594 9.683594 20.796875 9.683594 21.5 Z M 9.683594 21.5 " fill-opacity="1" fill-rule="nonzero"/><path fill="#026071" d="M 14.003906 20.945312 C 14.921875 20.945312 15.664062 20.199219 15.664062 19.285156 C 15.664062 18.289062 14.382812 16.976562 14.238281 16.832031 C 14.109375 16.703125 13.898438 16.703125 13.769531 16.832031 C 13.621094 16.976562 12.339844 18.289062 12.339844 19.285156 C 12.339844 20.199219 13.085938 20.945312 14.003906 20.945312 Z M 14.003906 20.945312 " fill-opacity="1" fill-rule="nonzero"/><path fill="#026071" d="M 14.003906 15.738281 C 14.675781 15.738281 15.222656 15.191406 15.222656 14.519531 C 15.222656 13.738281 14.339844 12.832031 14.238281 12.730469 C 14.109375 12.601562 13.898438 12.601562 13.769531 12.730469 C 13.667969 12.832031 12.785156 13.738281 12.785156 14.519531 C 12.785156 15.191406 13.332031 15.738281 14.003906 15.738281 Z M 14.003906 15.738281 " fill-opacity="1" fill-rule="nonzero"/><g clip-path="url(#4478679362)"><path fill="#026071" d="M 15 10.640625 C 15 10.773438 14.976562 10.898438 14.925781 11.023438 C 14.875 11.144531 14.800781 11.253906 14.707031 11.34375 C 14.613281 11.4375 14.507812 11.511719 14.386719 11.5625 C 14.261719 11.613281 14.136719 11.636719 14.003906 11.636719 C 13.871094 11.636719 13.742188 11.613281 13.621094 11.5625 C 13.5 11.511719 13.390625 11.4375 13.296875 11.34375 C 13.203125 11.253906 13.132812 11.144531 13.082031 11.023438 C 13.03125 10.898438 13.007812 10.773438 13.007812 10.640625 C 13.007812 10.507812 13.03125 10.382812 13.082031 10.257812 C 13.132812 10.136719 13.203125 10.027344 13.296875 9.933594 C 13.390625 9.839844 13.5 9.769531 13.621094 9.71875 C 13.742188 9.667969 13.871094 9.644531 14.003906 9.644531 C 14.136719 9.644531 14.261719 9.667969 14.386719 9.71875 C 14.507812 9.769531 14.613281 9.839844 14.707031 9.933594 C 14.800781 10.027344 14.875 10.136719 14.925781 10.257812 C 14.976562 10.382812 15 10.507812 15 10.640625 Z M 15 10.640625 " fill-opacity="1" fill-rule="nonzero"/></g><g fill="#026071" fill-opacity="1"><g transform="translate(20.58309, 20.728382)"><g/></g></g><g fill="#026071" fill-opacity="1"><g transform="translate(23.902668, 20.728382)"><g><path d="M 1.71875 -7.46875 L 1.71875 0 L 0.859375 0 L 0.859375 -8.5 L 2.015625 -8.5 L 6.75 -1.453125 L 6.78125 -1.453125 L 6.78125 -8.5 L 7.625 -8.5 L 7.625 0 L 6.78125 0 L 1.734375 -7.46875 Z M 1.71875 -7.46875 "/></g></g></g><g fill="#026071" fill-opacity="1"><g transform="translate(32.159199, 20.728382)"><g><path d="M 6.3125 -1.109375 C 6.050781 -0.710938 5.703125 -0.398438 5.265625 -0.171875 C 4.835938 0.046875 4.367188 0.15625 3.859375 0.15625 C 3.234375 0.15625 2.660156 0.0078125 2.140625 -0.28125 C 1.628906 -0.570312 1.222656 -0.96875 0.921875 -1.46875 C 0.628906 -1.976562 0.484375 -2.539062 0.484375 -3.15625 C 0.484375 -3.769531 0.632812 -4.328125 0.9375 -4.828125 C 1.25 -5.328125 1.660156 -5.71875 2.171875 -6 C 2.691406 -6.289062 3.253906 -6.4375 3.859375 -6.4375 C 4.378906 -6.4375 4.851562 -6.328125 5.28125 -6.109375 C 5.707031 -5.890625 6.050781 -5.578125 6.3125 -5.171875 L 6.328125 -5.171875 L 6.328125 -6.28125 L 7.125 -6.28125 L 7.125 0 L 6.328125 0 L 6.328125 -1.109375 Z M 6.375 -3.140625 C 6.375 -3.597656 6.257812 -4.023438 6.03125 -4.421875 C 5.8125 -4.816406 5.507812 -5.128906 5.125 -5.359375 C 4.738281 -5.597656 4.3125 -5.71875 3.84375 -5.71875 C 3.375 -5.71875 2.941406 -5.601562 2.546875 -5.375 C 2.160156 -5.15625 1.851562 -4.847656 1.625 -4.453125 C 1.394531 -4.054688 1.28125 -3.613281 1.28125 -3.125 C 1.28125 -2.644531 1.390625 -2.207031 1.609375 -1.8125 C 1.835938 -1.425781 2.148438 -1.125 2.546875 -0.90625 C 2.941406 -0.6875 3.378906 -0.578125 3.859375 -0.578125 C 4.316406 -0.578125 4.738281 -0.691406 5.125 -0.921875 C 5.507812 -1.148438 5.8125 -1.457031 6.03125 -1.84375 C 6.257812 -2.238281 6.375 -2.671875 6.375 -3.140625 Z M 6.375 -3.140625 "/></g></g></g><g fill="#026071" fill-opacity="1"><g transform="translate(39.76207, 20.728382)"><g><path d="M 0.15625 -5.5625 L 0.15625 -6.28125 L 1.484375 -6.28125 L 1.484375 -8.5 L 2.28125 -8.5 L 2.28125 -6.28125 L 3.796875 -6.28125 L 3.796875 -5.5625 L 2.28125 -5.5625 L 2.28125 0 L 1.484375 0 L 1.484375 -5.5625 Z M 0.15625 -5.5625 "/></g></g></g><g fill="#026071" fill-opacity="1"><g transform="translate(43.420053, 20.728382)"><g><path d="M 5.4375 -0.96875 C 5.257812 -0.613281 4.992188 -0.335938 4.640625 -0.140625 C 4.296875 0.0546875 3.894531 0.15625 3.4375 0.15625 C 2.945312 0.15625 2.5 0.0625 2.09375 -0.125 C 1.6875 -0.3125 1.351562 -0.613281 1.09375 -1.03125 C 0.84375 -1.457031 0.71875 -2.007812 0.71875 -2.6875 L 0.71875 -6.28125 L 1.515625 -6.28125 L 1.515625 -2.78125 C 1.515625 -1.3125 2.15625 -0.578125 3.4375 -0.578125 C 3.800781 -0.578125 4.128906 -0.660156 4.421875 -0.828125 C 4.722656 -1.003906 4.960938 -1.257812 5.140625 -1.59375 C 5.316406 -1.9375 5.40625 -2.351562 5.40625 -2.84375 L 5.40625 -6.28125 L 6.21875 -6.28125 L 6.21875 0 L 5.453125 0 L 5.453125 -0.96875 Z M 5.4375 -0.96875 "/></g></g></g><g fill="#026071" fill-opacity="1"><g transform="translate(50.162844, 20.728382)"><g><path d="M 1.546875 -6.28125 L 1.546875 -5.375 L 1.578125 -5.375 C 1.722656 -5.707031 1.929688 -5.957031 2.203125 -6.125 C 2.472656 -6.300781 2.851562 -6.40625 3.34375 -6.4375 L 3.34375 -5.59375 L 3.328125 -5.59375 C 2.765625 -5.539062 2.328125 -5.34375 2.015625 -5 C 1.703125 -4.65625 1.546875 -4.222656 1.546875 -3.703125 L 1.546875 0 L 0.75 0 L 0.75 -6.28125 Z M 1.546875 -6.28125 "/></g></g></g><g fill="#026071" fill-opacity="1"><g transform="translate(53.385044, 20.728382)"><g><path d="M 6.3125 -1.109375 C 6.050781 -0.710938 5.703125 -0.398438 5.265625 -0.171875 C 4.835938 0.046875 4.367188 0.15625 3.859375 0.15625 C 3.234375 0.15625 2.660156 0.0078125 2.140625 -0.28125 C 1.628906 -0.570312 1.222656 -0.96875 0.921875 -1.46875 C 0.628906 -1.976562 0.484375 -2.539062 0.484375 -3.15625 C 0.484375 -3.769531 0.632812 -4.328125 0.9375 -4.828125 C 1.25 -5.328125 1.660156 -5.71875 2.171875 -6 C 2.691406 -6.289062 3.253906 -6.4375 3.859375 -6.4375 C 4.378906 -6.4375 4.851562 -6.328125 5.28125 -6.109375 C 5.707031 -5.890625 6.050781 -5.578125 6.3125 -5.171875 L 6.328125 -5.171875 L 6.328125 -6.28125 L 7.125 -6.28125 L 7.125 0 L 6.328125 0 L 6.328125 -1.109375 Z M 6.375 -3.140625 C 6.375 -3.597656 6.257812 -4.023438 6.03125 -4.421875 C 5.8125 -4.816406 5.507812 -5.128906 5.125 -5.359375 C 4.738281 -5.597656 4.3125 -5.71875 3.84375 -5.71875 C 3.375 -5.71875 2.941406 -5.601562 2.546875 -5.375 C 2.160156 -5.15625 1.851562 -4.847656 1.625 -4.453125 C 1.394531 -4.054688 1.28125 -3.613281 1.28125 -3.125 C 1.28125 -2.644531 1.390625 -2.207031 1.609375 -1.8125 C 1.835938 -1.425781 2.148438 -1.125 2.546875 -0.90625 C 2.941406 -0.6875 3.378906 -0.578125 3.859375 -0.578125 C 4.316406 -0.578125 4.738281 -0.691406 5.125 -0.921875 C 5.507812 -1.148438 5.8125 -1.457031 6.03125 -1.84375 C 6.257812 -2.238281 6.375 -2.671875 6.375 -3.140625 Z M 6.375 -3.140625 "/></g></g></g><g fill="#026071" fill-opacity="1"><g transform="translate(60.987914, 20.728382)"><g><path d="M 1.546875 -8.5 L 1.546875 0 L 0.75 0 L 0.75 -8.5 Z M 1.546875 -8.5 "/></g></g></g><g fill="#026071" fill-opacity="1"><g transform="translate(63.051882, 20.728382)"><g/></g></g><g fill="#026071" fill-opacity="1"><g transform="translate(65.99886, 20.728382)"><g><path d="M 1.71875 -7.46875 L 1.71875 0 L 0.859375 0 L 0.859375 -8.5 L 2.015625 -8.5 L 6.75 -1.453125 L 6.78125 -1.453125 L 6.78125 -8.5 L 7.625 -8.5 L 7.625 0 L 6.78125 0 L 1.734375 -7.46875 Z M 1.71875 -7.46875 "/></g></g></g><g fill="#026071" fill-opacity="1"><g transform="translate(74.25539, 20.728382)"><g><path d="M 3.703125 -0.578125 C 4.191406 -0.578125 4.644531 -0.707031 5.0625 -0.96875 C 5.488281 -1.238281 5.785156 -1.601562 5.953125 -2.0625 L 6.796875 -2.0625 C 6.554688 -1.394531 6.148438 -0.859375 5.578125 -0.453125 C 5.015625 -0.046875 4.390625 0.15625 3.703125 0.15625 C 3.117188 0.15625 2.578125 0.0078125 2.078125 -0.28125 C 1.578125 -0.570312 1.175781 -0.96875 0.875 -1.46875 C 0.582031 -1.976562 0.4375 -2.535156 0.4375 -3.140625 C 0.4375 -3.734375 0.582031 -4.28125 0.875 -4.78125 C 1.175781 -5.289062 1.578125 -5.691406 2.078125 -5.984375 C 2.585938 -6.285156 3.128906 -6.4375 3.703125 -6.4375 C 4.304688 -6.4375 4.859375 -6.28125 5.359375 -5.96875 C 5.867188 -5.65625 6.269531 -5.238281 6.5625 -4.71875 C 6.851562 -4.207031 7 -3.664062 7 -3.09375 L 6.984375 -2.84375 L 1.265625 -2.84375 C 1.285156 -2.4375 1.410156 -2.054688 1.640625 -1.703125 C 1.878906 -1.359375 2.179688 -1.082031 2.546875 -0.875 C 2.910156 -0.675781 3.296875 -0.578125 3.703125 -0.578125 Z M 3.703125 -5.71875 C 3.304688 -5.71875 2.9375 -5.625 2.59375 -5.4375 C 2.25 -5.257812 1.957031 -5.007812 1.71875 -4.6875 C 1.476562 -4.363281 1.328125 -3.992188 1.265625 -3.578125 L 6.171875 -3.578125 C 6.054688 -4.210938 5.769531 -4.726562 5.3125 -5.125 C 4.851562 -5.519531 4.316406 -5.71875 3.703125 -5.71875 Z M 3.703125 -5.71875 "/></g></g></g><g fill="#026071" fill-opacity="1"><g transform="translate(81.479822, 20.728382)"><g><path d="M 5.4375 -0.96875 C 5.257812 -0.613281 4.992188 -0.335938 4.640625 -0.140625 C 4.296875 0.0546875 3.894531 0.15625 3.4375 0.15625 C 2.945312 0.15625 2.5 0.0625 2.09375 -0.125 C 1.6875 -0.3125 1.351562 -0.613281 1.09375 -1.03125 C 0.84375 -1.457031 0.71875 -2.007812 0.71875 -2.6875 L 0.71875 -6.28125 L 1.515625 -6.28125 L 1.515625 -2.78125 C 1.515625 -1.3125 2.15625 -0.578125 3.4375 -0.578125 C 3.800781 -0.578125 4.128906 -0.660156 4.421875 -0.828125 C 4.722656 -1.003906 4.960938 -1.257812 5.140625 -1.59375 C 5.316406 -1.9375 5.40625 -2.351562 5.40625 -2.84375 L 5.40625 -6.28125 L 6.21875 -6.28125 L 6.21875 0 L 5.453125 0 L 5.453125 -0.96875 Z M 5.4375 -0.96875 "/></g></g></g><g fill="#026071" fill-opacity="1"><g transform="translate(88.222612, 20.728382)"><g><path d="M 1.546875 -6.28125 L 1.546875 -5.375 L 1.578125 -5.375 C 1.722656 -5.707031 1.929688 -5.957031 2.203125 -6.125 C 2.472656 -6.300781 2.851562 -6.40625 3.34375 -6.4375 L 3.34375 -5.59375 L 3.328125 -5.59375 C 2.765625 -5.539062 2.328125 -5.34375 2.015625 -5 C 1.703125 -4.65625 1.546875 -4.222656 1.546875 -3.703125 L 1.546875 0 L 0.75 0 L 0.75 -6.28125 Z M 1.546875 -6.28125 "/></g></g></g><g fill="#026071" fill-opacity="1"><g transform="translate(91.444812, 20.728382)"><g><path d="M 0.484375 -3.09375 C 0.484375 -3.707031 0.628906 -4.269531 0.921875 -4.78125 C 1.222656 -5.289062 1.625 -5.691406 2.125 -5.984375 C 2.625 -6.285156 3.164062 -6.4375 3.75 -6.4375 C 4.351562 -6.4375 4.90625 -6.285156 5.40625 -5.984375 C 5.914062 -5.679688 6.316406 -5.273438 6.609375 -4.765625 C 6.898438 -4.265625 7.046875 -3.722656 7.046875 -3.140625 C 7.046875 -2.546875 6.894531 -1.992188 6.59375 -1.484375 C 6.289062 -0.984375 5.882812 -0.582031 5.375 -0.28125 C 4.875 0.0078125 4.332031 0.15625 3.75 0.15625 C 3.164062 0.15625 2.625 0.00390625 2.125 -0.296875 C 1.625 -0.597656 1.222656 -0.992188 0.921875 -1.484375 C 0.628906 -1.984375 0.484375 -2.519531 0.484375 -3.09375 Z M 6.25 -3.1875 C 6.25 -3.632812 6.132812 -4.050781 5.90625 -4.4375 C 5.6875 -4.820312 5.382812 -5.128906 5 -5.359375 C 4.625 -5.597656 4.207031 -5.71875 3.75 -5.71875 C 3.3125 -5.71875 2.898438 -5.597656 2.515625 -5.359375 C 2.140625 -5.117188 1.835938 -4.800781 1.609375 -4.40625 C 1.390625 -4.007812 1.28125 -3.578125 1.28125 -3.109375 C 1.28125 -2.660156 1.390625 -2.238281 1.609375 -1.84375 C 1.835938 -1.457031 2.140625 -1.148438 2.515625 -0.921875 C 2.898438 -0.691406 3.316406 -0.578125 3.765625 -0.578125 C 4.222656 -0.578125 4.640625 -0.691406 5.015625 -0.921875 C 5.398438 -1.160156 5.703125 -1.476562 5.921875 -1.875 C 6.140625 -2.269531 6.25 -2.707031 6.25 -3.1875 Z M 6.25 -3.1875 "/></g></g></g><g fill="#026071" fill-opacity="1"><g transform="translate(98.732453, 20.728382)"><g/></g></g><g fill="#026071" fill-opacity="1"><g transform="translate(102.046399, 20.728382)"><g><path d="M 2.9375 -3.40625 L 2.9375 0 L 0.765625 0 L 0.765625 -8.5 L 2.9375 -8.5 L 2.9375 -5.3125 L 5.71875 -5.3125 L 5.71875 -8.5 L 7.890625 -8.5 L 7.890625 0 L 5.71875 0 L 5.71875 -3.40625 Z M 2.9375 -3.40625 "/></g></g></g><g fill="#026071" fill-opacity="1"><g transform="translate(110.463477, 20.728382)"><g><path d="M 0.015625 -6.375 L 2.046875 -6.375 L 3.3125 -2.671875 L 3.34375 -2.671875 L 4.5625 -6.375 L 6.578125 -6.375 L 3.390625 2.125 L 1.359375 2.125 L 2.375 -0.328125 Z M 0.015625 -6.375 "/></g></g></g><g fill="#026071" fill-opacity="1"><g transform="translate(116.816372, 20.728382)"><g><path d="M 2.484375 -6.375 L 2.484375 -5.671875 L 2.515625 -5.671875 C 3.003906 -6.285156 3.671875 -6.59375 4.515625 -6.59375 C 5.109375 -6.59375 5.640625 -6.441406 6.109375 -6.140625 C 6.585938 -5.835938 6.957031 -5.421875 7.21875 -4.890625 C 7.476562 -4.367188 7.609375 -3.78125 7.609375 -3.125 C 7.609375 -2.519531 7.476562 -1.960938 7.21875 -1.453125 C 6.957031 -0.941406 6.585938 -0.535156 6.109375 -0.234375 C 5.640625 0.0664062 5.109375 0.21875 4.515625 0.21875 C 3.710938 0.21875 3.070312 -0.046875 2.59375 -0.578125 L 2.59375 2.125 L 0.6875 2.125 L 0.6875 -6.375 Z M 5.703125 -3.1875 C 5.703125 -3.476562 5.628906 -3.75 5.484375 -4 C 5.347656 -4.25 5.15625 -4.445312 4.90625 -4.59375 C 4.664062 -4.738281 4.394531 -4.8125 4.09375 -4.8125 C 3.800781 -4.8125 3.535156 -4.738281 3.296875 -4.59375 C 3.054688 -4.445312 2.863281 -4.25 2.71875 -4 C 2.582031 -3.75 2.515625 -3.476562 2.515625 -3.1875 C 2.515625 -2.882812 2.582031 -2.609375 2.71875 -2.359375 C 2.863281 -2.117188 3.054688 -1.925781 3.296875 -1.78125 C 3.535156 -1.632812 3.804688 -1.5625 4.109375 -1.5625 C 4.410156 -1.5625 4.679688 -1.632812 4.921875 -1.78125 C 5.160156 -1.925781 5.347656 -2.125 5.484375 -2.375 C 5.628906 -2.625 5.703125 -2.894531 5.703125 -3.1875 Z M 5.703125 -3.1875 "/></g></g></g><g fill="#026071" fill-opacity="1"><g transform="translate(124.57979, 20.728382)"><g><path d="M 3.6875 -4.796875 C 3.300781 -4.796875 3.019531 -4.691406 2.84375 -4.484375 C 2.675781 -4.273438 2.59375 -3.953125 2.59375 -3.515625 L 2.59375 0 L 0.6875 0 L 0.6875 -6.375 L 2.46875 -6.375 L 2.46875 -5.703125 L 2.484375 -5.703125 C 2.691406 -6.015625 2.929688 -6.238281 3.203125 -6.375 C 3.484375 -6.519531 3.820312 -6.59375 4.21875 -6.59375 C 4.632812 -6.59375 5.019531 -6.507812 5.375 -6.34375 C 5.738281 -6.175781 6.03125 -5.90625 6.25 -5.53125 C 6.476562 -5.15625 6.59375 -4.664062 6.59375 -4.0625 L 6.59375 0 L 4.6875 0 L 4.6875 -3.53125 C 4.6875 -3.96875 4.601562 -4.285156 4.4375 -4.484375 C 4.28125 -4.691406 4.03125 -4.796875 3.6875 -4.796875 Z M 3.6875 -4.796875 "/></g></g></g><g fill="#026071" fill-opacity="1"><g transform="translate(131.597803, 20.728382)"><g><path d="M 3.828125 0.1875 C 3.179688 0.1875 2.597656 0.0390625 2.078125 -0.25 C 1.554688 -0.539062 1.144531 -0.941406 0.84375 -1.453125 C 0.539062 -1.972656 0.390625 -2.550781 0.390625 -3.1875 C 0.390625 -3.832031 0.539062 -4.410156 0.84375 -4.921875 C 1.15625 -5.441406 1.570312 -5.847656 2.09375 -6.140625 C 2.613281 -6.429688 3.191406 -6.578125 3.828125 -6.578125 C 4.460938 -6.578125 5.039062 -6.429688 5.5625 -6.140625 C 6.082031 -5.847656 6.492188 -5.441406 6.796875 -4.921875 C 7.109375 -4.410156 7.265625 -3.84375 7.265625 -3.21875 C 7.265625 -2.5625 7.109375 -1.972656 6.796875 -1.453125 C 6.492188 -0.929688 6.082031 -0.523438 5.5625 -0.234375 C 5.039062 0.046875 4.460938 0.1875 3.828125 0.1875 Z M 5.359375 -3.1875 C 5.359375 -3.476562 5.289062 -3.742188 5.15625 -3.984375 C 5.019531 -4.234375 4.832031 -4.429688 4.59375 -4.578125 C 4.363281 -4.722656 4.101562 -4.796875 3.8125 -4.796875 C 3.539062 -4.796875 3.285156 -4.722656 3.046875 -4.578125 C 2.816406 -4.429688 2.632812 -4.234375 2.5 -3.984375 C 2.363281 -3.742188 2.296875 -3.476562 2.296875 -3.1875 C 2.296875 -2.894531 2.363281 -2.625 2.5 -2.375 C 2.632812 -2.132812 2.816406 -1.941406 3.046875 -1.796875 C 3.285156 -1.648438 3.546875 -1.578125 3.828125 -1.578125 C 4.117188 -1.578125 4.378906 -1.648438 4.609375 -1.796875 C 4.847656 -1.953125 5.03125 -2.148438 5.15625 -2.390625 C 5.289062 -2.640625 5.359375 -2.90625 5.359375 -3.1875 Z M 5.359375 -3.1875 "/></g></g></g><g fill="#026071" fill-opacity="1"><g transform="translate(139.005724, 20.728382)"><g><path d="M 2.8125 -5.0625 C 2.65625 -5.0625 2.523438 -5.019531 2.421875 -4.9375 C 2.316406 -4.863281 2.265625 -4.765625 2.265625 -4.640625 C 2.265625 -4.472656 2.347656 -4.332031 2.515625 -4.21875 C 2.691406 -4.113281 3.003906 -4.003906 3.453125 -3.890625 C 4.191406 -3.703125 4.710938 -3.453125 5.015625 -3.140625 C 5.316406 -2.828125 5.46875 -2.429688 5.46875 -1.953125 C 5.46875 -1.515625 5.351562 -1.132812 5.125 -0.8125 C 4.894531 -0.488281 4.582031 -0.234375 4.1875 -0.046875 C 3.789062 0.128906 3.351562 0.21875 2.875 0.21875 C 2.15625 0.21875 1.554688 0.0234375 1.078125 -0.359375 C 0.609375 -0.742188 0.34375 -1.253906 0.28125 -1.890625 L 2.171875 -1.890625 C 2.203125 -1.703125 2.28125 -1.554688 2.40625 -1.453125 C 2.53125 -1.359375 2.691406 -1.3125 2.890625 -1.3125 C 3.066406 -1.3125 3.222656 -1.351562 3.359375 -1.4375 C 3.492188 -1.53125 3.5625 -1.648438 3.5625 -1.796875 C 3.5625 -1.984375 3.484375 -2.132812 3.328125 -2.25 C 3.171875 -2.363281 2.859375 -2.492188 2.390625 -2.640625 C 1.628906 -2.867188 1.097656 -3.132812 0.796875 -3.4375 C 0.503906 -3.75 0.359375 -4.109375 0.359375 -4.515625 C 0.359375 -4.921875 0.472656 -5.28125 0.703125 -5.59375 C 0.929688 -5.914062 1.234375 -6.160156 1.609375 -6.328125 C 1.992188 -6.503906 2.398438 -6.59375 2.828125 -6.59375 C 3.523438 -6.59375 4.09375 -6.410156 4.53125 -6.046875 C 4.976562 -5.691406 5.222656 -5.203125 5.265625 -4.578125 L 3.40625 -4.578125 C 3.394531 -4.898438 3.195312 -5.0625 2.8125 -5.0625 Z M 2.8125 -5.0625 "/></g></g></g><g fill="#026071" fill-opacity="1"><g transform="translate(144.498538, 20.728382)"><g><path d="M 2.59375 -8.5 L 2.59375 -7.046875 L 0.6875 -7.046875 L 0.6875 -8.5 Z M 2.59375 -6.375 L 2.59375 0 L 0.6875 0 L 0.6875 -6.375 Z M 2.59375 -6.375 "/></g></g></g><g fill="#026071" fill-opacity="1"><g transform="translate(147.548732, 20.728382)"><g><path d="M 2.8125 -5.0625 C 2.65625 -5.0625 2.523438 -5.019531 2.421875 -4.9375 C 2.316406 -4.863281 2.265625 -4.765625 2.265625 -4.640625 C 2.265625 -4.472656 2.347656 -4.332031 2.515625 -4.21875 C 2.691406 -4.113281 3.003906 -4.003906 3.453125 -3.890625 C 4.191406 -3.703125 4.710938 -3.453125 5.015625 -3.140625 C 5.316406 -2.828125 5.46875 -2.429688 5.46875 -1.953125 C 5.46875 -1.515625 5.351562 -1.132812 5.125 -0.8125 C 4.894531 -0.488281 4.582031 -0.234375 4.1875 -0.046875 C 3.789062 0.128906 3.351562 0.21875 2.875 0.21875 C 2.15625 0.21875 1.554688 0.0234375 1.078125 -0.359375 C 0.609375 -0.742188 0.34375 -1.253906 0.28125 -1.890625 L 2.171875 -1.890625 C 2.203125 -1.703125 2.28125 -1.554688 2.40625 -1.453125 C 2.53125 -1.359375 2.691406 -1.3125 2.890625 -1.3125 C 3.066406 -1.3125 3.222656 -1.351562 3.359375 -1.4375 C 3.492188 -1.53125 3.5625 -1.648438 3.5625 -1.796875 C 3.5625 -1.984375 3.484375 -2.132812 3.328125 -2.25 C 3.171875 -2.363281 2.859375 -2.492188 2.390625 -2.640625 C 1.628906 -2.867188 1.097656 -3.132812 0.796875 -3.4375 C 0.503906 -3.75 0.359375 -4.109375 0.359375 -4.515625 C 0.359375 -4.921875 0.472656 -5.28125 0.703125 -5.59375 C 0.929688 -5.914062 1.234375 -6.160156 1.609375 -6.328125 C 1.992188 -6.503906 2.398438 -6.59375 2.828125 -6.59375 C 3.523438 -6.59375 4.09375 -6.410156 4.53125 -6.046875 C 4.976562 -5.691406 5.222656 -5.203125 5.265625 -4.578125 L 3.40625 -4.578125 C 3.394531 -4.898438 3.195312 -5.0625 2.8125 -5.0625 Z M 2.8125 -5.0625 "/></g></g></g></svg>