<svg fill="none" height="40" viewBox="0 0 131 40" width="131" xmlns="http://www.w3.org/2000/svg"><g fill="#757780"><path d="m19.7619.126992c-10.96701.001784-19.6862252 8.957438-19.6844516 19.864708.0017931 11.0267 8.7239216 19.9817 19.6909516 19.9799 11.0248-.0018 19.6271-8.958 19.6253-19.9828.0001-10.90729-8.607-19.8636-19.6318-19.861808zm.0013 8.430618c8.9547-.00146 15.5155 5.68419 18.2885 11.43139-2.7711 5.8358-9.3301 11.5506-18.2847 11.552-9.0125.0015-15.52082-5.713-18.29198-11.5461 2.76928-5.7462 9.27758-11.43235 18.28818-11.43382zm.0002.9039c-5.8335.00095-10.58879 4.72319-10.58784 10.52869.00096 5.8932 4.75774 10.5888 10.59124 10.5878 5.8335-.0009 10.5262-4.6983 10.5253-10.5878-.001-5.8055-4.6952-10.52964-10.5287-10.52869z"/><path d="m58.2211 2.4846c-10.2968.00168-17.4718 7.8192-17.4702 17.3265v.1147c.0015 9.6248 7.3253 17.239 17.2151 17.2374 6.4458-.0011 10.2967-2.3072 13.7384-6.0132l-4.6976-4.7204c-2.6261 2.3898-4.9912 3.9397-8.8124 3.9404-5.7458.0009-9.7421-4.8163-9.743-10.5602v-.0869c-.0009-5.7458 4.0815-10.44421 9.7396-10.44513 3.3545-.00054 5.9802 1.42863 8.5772 3.79153l4.6959-5.42766c-3.1216-3.06091-6.9129-5.15806-13.243-5.15704z"/><path d="m74.4688 3.06268.0054 33.51042 15.9538-.0026c7.5528-.0013 12.539-3.0608 12.538-9.1836v-.1182c0-4.4913-2.39-6.7392-6.2726-8.2245 2.3929-1.3407 4.4046-3.4406 4.4036-7.2319v-.0869c0-2.30729-.76-4.17317-2.3059-5.71856-1.923-1.89441-4.9279-2.94731-8.7509-2.94669zm7.1731 6.44434 7.2938-.00118c3.1211-.00051 4.8395 1.25316 4.8399 3.44096v.1182c.0004 2.479-2.0691 3.5291-5.3359 3.5296l-6.7966.0046zm.0022 13.21778 8.5488-.0014c3.7595-.0006 5.4514 1.4004 5.4518 3.6461v.1147c.0004 2.479-1.9808 3.6159-5.2177 3.6164l-8.7817.0049z"/><path d="m117.42 2.5612c-6.825.00111-11.722 4.02567-11.721 10.1186v.0904c.001 6.653 4.373 8.5201 11.112 10.2401 5.601 1.4552 6.766 2.3875 6.766 4.2542v.1182c.001 1.9526-1.838 3.1501-4.842 3.1505-3.851.0007-7-1.5769-10.006-4.0555l-4.373 5.2225c4.026 3.5872 9.159 5.3385 14.234 5.3377v-.0035c7.234-.0012 12.306-3.7374 12.305-10.3829v-.087c-.001-5.8615-3.849-8.2868-10.646-10.0628-5.774-1.4887-7.235-2.2158-7.236-4.4036v-.0869c0-1.6334 1.488-2.94491 4.318-2.94537 2.829-.00046 5.747 1.25087 8.723 3.31867l3.82-5.56656c-3.385-2.71179-7.554-4.25753-12.454-4.25674z"/></g></svg>