<svg fill="none" height="24" viewBox="0 0 108 24" width="108" xmlns="http://www.w3.org/2000/svg" xmlns:xlink="http://www.w3.org/1999/xlink"><linearGradient id="a" gradientUnits="userSpaceOnUse" x1="61.3562" x2="71.8582" y1="14.9531" y2="6.89731"><stop offset=".06" stop-color="#02bbae"/><stop offset=".07" stop-color="#1ac2b3"/><stop offset=".09" stop-color="#3fccbb"/><stop offset=".12" stop-color="#5fd5c2"/><stop offset=".14" stop-color="#7addc8"/><stop offset=".18" stop-color="#90e4cd"/><stop offset=".21" stop-color="#a1e9d1"/><stop offset=".26" stop-color="#adecd4"/><stop offset=".32" stop-color="#b4eed5"/><stop offset=".49" stop-color="#b6efd6"/><stop offset=".98" stop-color="#fff"/></linearGradient><linearGradient id="b" gradientUnits="userSpaceOnUse" x1="55.9857" x2="73.478" y1="14.864" y2="8.36908"><stop offset=".22" stop-color="#2a334c"/><stop offset="1" stop-color="#55bab0"/></linearGradient><linearGradient id="c" gradientUnits="userSpaceOnUse" x1="63.7524" x2="65.7608" y1="12.5735" y2="10.8411"><stop offset="0" stop-color="#27354e" stop-opacity=".5"/><stop offset=".07" stop-color="#3c5062" stop-opacity=".58"/><stop offset=".19" stop-color="#5b7980" stop-opacity=".69"/><stop offset=".32" stop-color="#759d9a" stop-opacity=".78"/><stop offset=".44" stop-color="#8bbaaf" stop-opacity=".86"/><stop offset=".57" stop-color="#9cd0c0" stop-opacity=".92"/><stop offset=".7" stop-color="#a8e0cb" stop-opacity=".97"/><stop offset=".84" stop-color="#afe9d2" stop-opacity=".99"/><stop offset="1" stop-color="#b2edd5"/></linearGradient><clipPath id="d"><path d="m0 0h108v24h-108z"/></clipPath><g clip-path="url(#d)"><path d="m72.7315 12.0068c-.2379 2.2835-1.6627 5.0492-4.3561 5.9406-1.3083.4343-2.4999.2857-3.1738.1463 1.6137-.5097 2.6374-1.312 3.1738-1.8034.3311-.3063.7882-.7315 1.1962-1.4217.7486-1.2663.7952-2.4983.7789-3.0652-.0163-.5463-.0629-1.6868-.8535-2.83199-.2402-.34743-.8978-1.20457-2.0964-1.71657-.9165-.39086-1.7233-.39771-2.1547-.39543-.681 0-1.1707.12343-1.3619.176-.506.13943-.9211.34286-.9141.36572.0116.032.7159-.35429 1.7-.39543.1749-.00686 1.0027-.02972 1.9308.37486.2239.09828.548.24228.8978.53485.4011.336.6203.688.7789.94629.1329.21714.3312.54628.4641 1.01943.028.10057.2495.92117.0489 1.72347-.0676.2742-.1772.5051-.1865.528-.0443.096-.1259.2537-.2845.4777-.1493.2103-.4034.5303-.8045.8868.0676-.1417.1329-.2811.2005-.4228-.2868.2583-.6576.432-1.068.4731-.4781.4732-1.1404.7657-1.8726.7657-1.4551 0-2.6374-1.1565-2.6374-2.5851s1.1799-2.58516 2.6374-2.58516c.7322 0 1.3945.29257 1.8726.76572.597.05942 1.11.39544 1.4038.87544-.0956-.576-.3335-1.11773-.7089-1.56802-1.1823-1.41942-3.2554-1.36457-4.5497-.80685-.2262.096-1.4784.66057-2.0054 1.93597-.3545.8549-.2379 1.68-.0443 3.0377.0909.6423.2168 1.1658.3148 1.5269-.2309-.1829-.5317-.4594-.8092-.8503-1.3106-1.8537-.8885-4.63542.3148-6.49827.2145-.33372 1.9239-2.88229 5.1933-3.08115 3.1784-.192 5.1629 1.99772 5.4171 2.288 1.8399 2.10286 1.6254 4.58512 1.5578 5.23662z" fill="url(#a)"/><path d="m64.7725 2.56458c-5.163 0-9.3512 4.10285-9.3512 9.16572 0 5.0628 4.1859 9.1657 9.3512 9.1657s9.3511-4.1029 9.3511-9.1657c0-5.06287-4.1858-9.16572-9.3511-9.16572zm1.8655 9.16572c0 .7131-.4174 1.3303-1.026 1.632-.2519.1257-.5387.1966-.8395.1966-1.0307 0-1.8656-.8183-1.8656-1.8286s.8349-1.82858 1.8656-1.82858c.3031 0 .5876.07085.8395.19658.6086.3017 1.026.9188 1.026 1.632zm-3.6938 6.0297c-.3451-.0709-2.6444-.5897-4.0249-2.7429-.1843-.288-.8722-1.4148-.9491-3.008-.0513-1.088.2052-1.9222.2845-2.16681.1749-.53257.4057-.96457.6133-1.35543.2495-.46628.4034-.67886.4897-.78629.2681-.34742.5433-.59428.7439-.75199-.4244.43657-1.2779 1.43542-1.6161 2.96228-.2798 1.25944-.0769 2.27654.014 2.65604.3638 1.5177 1.2313 2.4434 1.4225 2.64.3055.3177 1.0517 1.0674 2.304 1.4377 1.5694.4617 2.8823.0137 3.2927-.1326.4198-.1486 1.2849-.5166 2.0661-1.3211.2472-.256.4291-.4938.555-.6743-.1679.176-1.7419 1.7668-3.9223 1.4514-.3055-.0434-1.4762-.2309-2.395-1.232-.2098-.2286-1.124-1.2823-.9794-2.8023.105-1.1086.7159-1.8468.9794-2.12798.2472-.26286 1.166-1.15886 2.5745-1.18172.1843-.00228 1.2406-.00457 2.1105.67429.2471.19428.4687.432.457.448-.0163.01828-.3848-.39543-.9724-.66057-.7696-.34515-1.5111-.24686-1.7513-.21257-.2192.032-.6413.096-1.1077.36571-.576.33371-.8698.77944-1.0097.99654-.1353.208-.4081.6469-.4781 1.2846-.0163.1394-.0793.8183.2845 1.5703.2705.56.646.8823.7416.96.4081.3406.8092.4731 1.026.544.1516.048.8722.2697 1.7957.096.8371-.1577 1.3875-.5532 1.7139-.7932.3195-.2354.8069-.6034 1.152-1.2617.049-.096.0933-.1874.1283-.2765.1166-.2858.1609-.5143.1795-.6126.1027-.5783.0047-1.0309-.0676-1.3509-.1982-.87997-.6319-1.46283-.7415-1.60683-.1679-.21942-.555-.71085-1.25-1.07885-.8348-.44115-1.6137-.43429-2.0498-.42514-.3451.00685-.9887.02514-1.7209.35885-.8652.39314-1.3409.98972-1.5858 1.30515-.2215.28571-.6459.84114-.8232 1.66402-.1259.5874-.0862 1.1177-.0513 1.5474.0257.3246.0677.5943.105.7931-.1376-.3771-.2962-.9257-.3452-1.6-.1002-1.4171.3545-2.5051.583-2.97824.2262-.464.8885-1.77143 2.4393-2.59657.2751-.14629 1.3921-.71086 2.9336-.64457 1.1193.04571 1.9588.40457 2.3809.61485.4151.208 1.3385.736 2.0801 1.776 1.1473 1.60686 1.0587 3.31433 1.0167 3.91773-.1096 1.6457-.8301 2.8434-1.2732 3.4468-1.103 1.5109-2.5605 2.176-3.4163 2.4778-.1843.064-.3405.112-.4594.1485-.674.2012-1.9169.56-3.4723.2355z" fill="url(#b)"/><path d="m64.7725 13.04c.738 0 1.3362-.5864 1.3362-1.3097s-.5982-1.3097-1.3362-1.3097-1.3362.5864-1.3362 1.3097.5982 1.3097 1.3362 1.3097z" fill="url(#c)"/><g fill="#fff"><path d="m64.7725 12.2103c.2704 0 .4897-.2149.4897-.48s-.2193-.48-.4897-.48c-.2705 0-.4897.2149-.4897.48s.2192.48.4897.48z"/><path d="m0 .205688h2.28532v6.816002c.54101-.672 1.02839-1.14514 1.45981-1.41714.73689-.47315 1.65335-.70858 2.75404-.70858 1.9705 0 3.30672.67658 4.01093 2.02743.3801.73829.5714 1.76229.5714 3.072v8.5463h-2.34832v-8.3954c0-.97833-.12592-1.69604-.3801-2.1509-.41509-.72914-1.19397-1.09485-2.3343-1.09485-.94677 0-1.80726.32-2.57681.95771s-1.15432 1.84457-1.15432 3.62054v7.0652h-2.28765z"/><path d="m22.9512 5.21826h2.5255c-.3218.85486-1.0354 2.80457-2.1454 5.84914-.8302 2.2903-1.5228 4.1554-2.0801 5.6-1.3176 3.3966-2.248 5.4697-2.7891 6.2149-.541.7451-1.4714 1.1177-2.789 1.1177-.3218 0-.569-.0115-.7415-.0366-.1726-.0251-.3871-.0709-.6413-.1371v-2.0389c.3964.1074.6832.1737.8605.1989.1772.0251.3334.0365.4687.0365.4221 0 .7322-.0685.9304-.2057.1983-.1371.3662-.304.5014-.5028.042-.0663.1936-.4046.4547-1.0172.2612-.6126.4524-1.0674.5714-1.3646l-5.0254-13.71424h2.5885l3.6425 10.85024z"/><path d="m27.2582 5.28002h2.2341v1.76686c.457-.60571.9584-1.07428 1.5017-1.40571.7719-.49829 1.679-.74743 2.7238-.74743 1.5437 0 2.8543.57828 3.9316 1.73486 1.0774 1.15657 1.6161 2.80914 1.6161 4.9577 0 2.9029-.7765 4.976-2.332 6.2194-.984.7886-2.1314 1.1818-3.4396 1.1818-1.0284 0-1.8889-.2195-2.5861-.6583-.4081-.2492-.8629-.6766-1.3642-1.2823v6.8046h-2.2854zm8.5933 10.44118c.7089-.8755 1.0634-2.1829 1.0634-3.9246 0-1.0606-.1563-1.97258-.4711-2.736-.5946-1.46743-1.6813-2.20115-3.2601-2.20115-1.5787 0-2.6747.77486-3.26 2.32686-.3148.82969-.4711 1.88339-.4711 3.15889 0 1.0285.1563 1.904.4711 2.624.5946 1.376 1.6813 2.064 3.26 2.064 1.0704 0 1.9589-.4366 2.6678-1.312z"/><path d="m41.903 5.21831h2.171v1.89029c.6436-.77943 1.3246-1.33943 2.0428-1.68s1.5181-.50972 2.3996-.50972c1.9285 0 3.2321.65829 3.9083 1.97715.3732.72228.5574 1.75314.5574 3.09714v8.54633h-2.3226v-8.3955c0-.81369-.1236-1.4674-.3685-1.96569-.4058-.82971-1.1427-1.24343-2.2084-1.24343-.541 0-.9864.05486-1.3315.16229-.6273.18286-1.1753.54629-1.6487 1.09486-.3801.43885-.6273.89371-.7416 1.36228-.1142.46859-.1702 1.13829-.1702 2.00919v6.9782h-2.2853v-13.32339z"/><path d="m76.5652 16.5052 8.0709-9.55205h-7.4739v-2.00228h10.5451v1.82857l-8.0196 9.49026h8.2598v2.0023h-11.3823z"/><path d="m90.5756 0h2.3226v2.53714h-2.3226zm0 5.01257h2.3226v13.25943h-2.3226z"/><path d="m106.197 6.28115c1.201 1.14285 1.803 2.82514 1.803 5.04455 0 2.2194-.529 3.92-1.588 5.3189-1.059 1.3988-2.7 2.1005-4.927 2.1005-1.8567 0-3.3305-.6194-4.4242-1.8582-1.0914-1.2389-1.637-2.9029-1.637-4.9898 0-2.23767.576-4.01824 1.7256-5.34395 1.1497-1.32572 2.6958-1.98857 4.6386-1.98857 1.739 0 3.208.57142 4.409 1.71428zm-1.417 8.85255c.557-1.1223.834-2.3703.834-3.7463 0-1.2434-.2-2.25368-.601-3.03082-.637-1.22515-1.733-1.83772-3.288-1.83772-1.381 0-2.3835.52114-3.0108 1.56572-.6273 1.04457-.9422 2.30172-.9422 3.77602s.3125 2.5965.9422 3.5405c.6273.944 1.6228 1.4172 2.9868 1.4172 1.498 0 2.524-.56 3.081-1.6823z"/></g></g></svg>