<svg fill="none" height="48" viewBox="0 0 48 48" width="48" xmlns="http://www.w3.org/2000/svg"><g fill="#000"><path d="m26.8125 42.3086c-.5175 0-.9375.42-.9375.9375s.42.9375.9375.9375.9375-.42.9375-.9375-.42-.9375-.9375-.9375z"/><path d="m13.6406 18.7773c-.5178 0-.9375.4198-.9375.9375v17.9063c0 .5178.4197.9375.9375.9375s.9375-.4197.9375-.9375v-17.9063c0-.5177-.4197-.9375-.9375-.9375z"/><path d="m21.1406 18.7773c-.5178 0-.9375.4198-.9375.9375v17.9063c0 .5178.4197.9375.9375.9375s.9375-.4197.9375-.9375v-17.9063c0-.5177-.4197-.9375-.9375-.9375z"/><path d="m39.9844 15.0938h-4.6875v-2.8368c1.4695-1.1017 2.1679-2.96375 1.7538-4.80228-.3875-1.72406-1.8106-3.13106-3.5408-3.50109-.9198-.19735-1.8461-.1275-2.6902.1934-.8463-1.33434-2.3326-2.17828-3.9603-2.17828-.6135 0-1.2131.11897-1.7674.34791-1.5692-1.480222-3.638-2.31666-5.7795-2.31666-2.8328 0-5.4746 1.44309-7.0341 3.80428-4.90027-.27112-8.95028 3.61659-8.95028 8.41042v11.25c0 1.5508 1.28269 2.8125 2.85938 2.8125.34584 0 .67725-.0629.98438-.1775v17.2128c0 2.5847 2.10281 4.6875 4.68752 4.6875h18.75c2.5847 0 4.6875-2.1028 4.6875-4.6875v-2.8125h4.6875c2.5847 0 4.6875-2.1028 4.6875-4.6875v-16.0313c0-2.5846-2.1028-4.6874-4.6875-4.6874zm-6.5625 27.2812h-2.8603c-.5178 0-.9375.4197-.9375.9375s.4197.9281.9375.9281h2.699c-.387 1.0912-1.4291 1.8844-2.6512 1.8844h-18.75c-1.2222 0-2.26427-.7838-2.65127-1.875h13.85527c.5178 0 .9375-.4197.9375-.9375s-.4197-.9375-.9375-.9375h-14.01652v-18.9309-6.6154c2.10592-.3179 3.92942-1.6442 4.88812-3.6099.1956 0 .3679.0677.4977.1951 1.0581 1.0405 2.4581 1.6134 3.9423 1.6134 1.5382 0 2.9742-.6089 4.0439-1.7152.0572-.0592.1381-.0933.2217-.0933 1.4594 0 2.4144.3118 2.8385.9264.3496.5067.3493 1.2108.349 1.7766v3.793c0 1.2221.7839 2.2642 1.875 2.6512v15.255c0 .5178.4197.9375.9375.9375s.9375-.4197.9375-.9375v-15.2551c1.0912-.387 1.875-1.429 1.875-2.6512v-6.606c.6567.131 1.327.1319 1.9688.0006zm-2.4813-31.4112c-.2906-.1479-.6371-.1341-.9152.0364-.278.1705-.4474.4731-.4474.7992v7.9153c0 .5169-.4205.9375-.9375.9375-.5169 0-.9375-.4206-.9375-.9375v-3.7924c.0003-.7384.0008-1.8543-.6807-2.842-.7949-1.1523-2.2691-1.7365-4.3817-1.7365-.5897 0-1.1621.2427-1.5702.6655-.7127.737-1.67 1.1429-2.6954 1.1429-.9893 0-1.9225-.3819-2.6283-1.076-.4812-.4724-1.1246-.7324-1.8117-.7324-.7105 0-1.3709.4122-1.6824 1.0501-.7858 1.6092-2.3766 2.6182-4.15129 2.6334-.51459.0044-.92953.4228-.92953.9375v7.4554c-.033.5521-.46228.982-.98428.982-.53353 0-.98438-.4294-.98438-.9375v-11.25c0-3.61839 2.96082-6.54864 6.60068-6.54864.2828 0 .5672.018.8513.05447.3792.04866.7498-.13791.9369-.47119 1.1677-2.08134 3.3597-3.37434 5.7205-3.37434 1.8497 0 3.633.80766 4.8925 2.21597.3053.34144.8127.41231 1.1999.16734.4288-.27122.9317-.41456 1.4545-.41456 1.1934 0 2.2601.75572 2.6543 1.88034.0959.27375.3132.48778.5885.57947.2751.09169.5774.05081.8183-.11081.639-.42844 1.4188-.57253 2.1965-.40566 1.0125.21657 1.8778 1.07138 2.1043 2.07928.5336 2.36853-1.8942 4.31133-4.2807 3.09743zm4.3563 9.755h3.75v14.1562h-3.75zm7.5 15.0937c0 1.5508-1.2617 2.8125-2.8125 2.8125h-4.6875v-1.875h4.6875c.5178 0 .9375-.4197.9375-.9375v-16.0313c0-.5177-.4197-.9374-.9375-.9374h-4.6875v-1.875h4.6875c1.5508 0 2.8125 1.2616 2.8125 2.8124z"/></g></svg>