<svg fill="none" height="56" viewBox="0 0 57 56" width="57" xmlns="http://www.w3.org/2000/svg" xmlns:xlink="http://www.w3.org/1999/xlink"><clipPath id="a"><path d="m.5 0h56v56h-56z"/></clipPath><g clip-path="url(#a)" fill="#3a5ba9"><path d="m55.2963 12.1025h-53.59263c-.66478 0-1.20367.5389-1.20367 1.2037v29.388c0 .6648.53889 1.2037 1.20367 1.2037h53.59253c.6648 0 1.2037-.5389 1.2037-1.2037v-29.388c.0001-.6648-.5388-1.2037-1.2036-1.2037zm-52.38885 2.4075h6.111c-.51264 3.1254-2.98561 5.5982-6.111 6.111zm0 26.9804v-6.111c3.12539.5126 5.59825 2.9856 6.111 6.111zm51.18505 0h-6.111c.5127-3.1254 2.9857-5.5982 6.111-6.111zm0-8.5412c-4.4545.5472-7.994 4.0867-8.5412 8.5413h-34.1026c-.5472-4.4546-4.08673-7.9941-8.54125-8.5413v-9.898c4.45452-.5472 7.99405-4.0867 8.54125-8.5412h34.1026c.5472 4.4545 4.0867 7.9941 8.5412 8.5412zm0-12.3283c-3.1253-.5127-5.5982-2.9856-6.111-6.111h6.111z"/><path d="m43.9445 22.816c-1.3275 0-2.4074-1.08-2.4074-2.4074 0-.5984-.485-1.0834-1.0834-1.0834h-23.9078c-.5984 0-1.0834.485-1.0834 1.0834 0 1.3274-1.08 2.4074-2.4075 2.4074-.5984 0-1.0833.485-1.0833 1.0834v8.2015c0 .5983.4849 1.0833 1.0833 1.0833 1.3275 0 2.4075 1.08 2.4075 2.4075 0 .5984.485 1.0833 1.0834 1.0833h23.9077c.5984 0 1.0833-.4849 1.0833-1.0833 0-1.3275 1.08-2.4075 2.4075-2.4075.5984 0 1.0834-.485 1.0834-1.0833v-8.2015c.0001-.5984-.485-1.0834-1.0833-1.0834zm-1.0834 8.331c-1.6535.4031-2.958 1.7076-3.3612 3.3612h-22.0002c-.4031-1.6535-1.7076-2.9581-3.3612-3.3612v-6.294c1.6535-.4031 2.9581-1.7076 3.3612-3.3612h22.0004c.4031 1.6535 1.7077 2.9581 3.3612 3.3612v6.294z"/><path d="m24.3973 23.0234h-1.626c-.5983 0-1.0833.485-1.0833 1.0834s.485 1.0834 1.0833 1.0834h.5428v6.7025c0 .5983.4849 1.0833 1.0833 1.0833s1.0834-.485 1.0834-1.0833v-7.7859c-.0001-.5984-.4851-1.0834-1.0835-1.0834z"/><path d="m34.1675 23.0234h-4.9816c-.5984 0-1.0834.485-1.0834 1.0834v7.7859c0 .5983.485 1.0833 1.0834 1.0833h4.9816c.5984 0 1.0834-.485 1.0834-1.0833v-7.7859c0-.5984-.4851-1.0834-1.0834-1.0834zm-1.0834 7.7858h-2.8148v-5.6192h2.8148z"/></g></svg>