<svg fill="none" height="56" viewBox="0 0 57 56" width="57" xmlns="http://www.w3.org/2000/svg" xmlns:xlink="http://www.w3.org/1999/xlink"><clipPath id="a"><path d="m.5 0h56v56h-56z"/></clipPath><g clip-path="url(#a)" fill="#3a5ba9"><path d="m54.0036 22.5921c-1.0532-.1577-2.1343-.309-3.2133-.4496-.1307-.017-.2368-.1057-.2698-.2258-.498-1.8072-1.2207-3.5511-2.1477-5.1832-.0624-.1096-.0507-.2478.0298-.3525.6636-.8624 1.3214-1.7342 1.9552-2.5911.8558-1.157.7315-2.7987-.2887-3.81904l-3.5401-3.54003c-1.0203-1.02026-2.6619-1.14451-3.8191-.28854-.855.63241-1.7267 1.29019-2.591 1.95508-.1044.08051-.2429.09221-.3525.02997-1.632-.92706-3.3759-1.6497-5.1832-2.1478-.1202-.03292-.2089-.13901-.226-.27004-.141-1.08063-.2921-2.1617-.4494-3.21301-.213-1.4233-1.4616-2.49649-2.9046-2.49649h-5.0064c-1.4431 0-2.6917 1.07319-2.9044 2.49638-.1574 1.05153-.3085 2.13249-.4495 3.21333-.0172.13093-.1058.2368-.2261.26983-1.8073.49832-3.5513 1.22085-5.1829 2.1478-.1097.06224-.2482.05021-.3528-.02997-.8641-.66489-1.736-1.32267-2.5911-1.95519-1.1573-.85586-2.7989-.73139-3.819.28875l-3.54007 3.54004c-1.02036 1.02043-1.1445 2.66233-.28853 3.81913.63482.8582 1.2926 1.7298 1.95508 2.5909.0804.1045.09221.2428.02997.3525-.92728 1.6325-1.64981 3.3763-2.1478 5.1832-.03292.12-.13901.2087-.26983.2259-1.07844.1407-2.1595.2919-3.21322.4496-1.42341.2128-2.4966 1.4616-2.4966 2.9045v5.0065c0 1.443 1.07319 2.6917 2.49638 2.9046 1.05372.1577 2.13489.3089 3.21333.4495.13093.0172.2368.1058.26983.226.49799 1.807 1.22063 3.5509 2.1478 5.1832.06224.1097.05043.248-.02997.3525-.66412.8632-1.3219 1.7349-1.95508 2.591-.85586 1.1569-.73183 2.7988.28854 3.8191l3.54007 3.5401c1.0204 1.0203 2.6623 1.1446 3.8191.2885.855-.6324 1.7267-1.2902 2.591-1.9551.1045-.0805.2429-.0921.3525-.0299 1.6319.927 3.3757 1.6494 5.1832 2.1478.1202.033.2089.139.226.2698.141 1.0806.2922 2.1618.4495 3.213.2129 1.4233 1.4615 2.4965 2.9046 2.4965h5.0064c1.443 0 2.6917-1.0732 2.9045-2.4967.1574-1.0525.3085-2.1336.4494-3.213.0172-.131.1058-.2369.226-.2701 1.8073-.4983 3.5513-1.2208 5.183-2.1478.1097-.062.2481-.0502.3527.03.8641.6649 1.736 1.3227 2.591 1.9551 1.1569.8558 2.7986.7318 3.8191-.2886l3.5401-3.54c1.0202-1.0204 1.1445-2.6621.2886-3.8192-.6338-.8565-1.2917-1.7283-1.9552-2.591-.0804-.1044-.0922-.2428-.0299-.3525.9272-1.6323 1.6498-3.3762 2.1477-5.183.0333-.1204.1392-.2089.2701-.2261 1.0788-.1407 2.1599-.2919 3.2132-.4496 1.4233-.2127 2.4965-1.4614 2.4965-2.9044v-5.0066c0-1.4426-1.0732-2.6915-2.4964-2.9042zm-.1185 7.9113c0 .1586-.1153.2953-.2683.3184-1.0371.1552-2.1018.304-3.1645.4428-1.1766.1533-2.1394.987-2.4528 2.124-.4407 1.5989-1.0801 3.1421-1.9004 4.5864-.5833 1.0269-.4927 2.2982.231 3.2388.6536.8496 1.3014 1.7081 1.9254 2.5516.0921.1244.0768.3029-.0353.415l-3.5402 3.54c-.1122.1122-.2906.1272-.4148.0354-.8419-.6229-1.7006-1.2707-2.5517-1.9255-.9406-.7237-2.2117-.8144-3.2385-.2312-1.4443.8203-2.9875 1.4598-4.5866 1.9006-1.1368.3133-1.9705 1.2761-2.1242 2.4528-.1385 1.0634-.2875 2.128-.4426 3.1645-.0229.153-.1598.2683-.3184.2683h-5.0064c-.1586 0-.2955-.1153-.3184-.2684-.1548-1.0353-.3039-2.0999-.4426-3.1643-.1535-1.1767-.9874-2.1394-2.1242-2.4528-1.5992-.4408-3.1424-1.0803-4.5866-1.9007-.4503-.2556-.9476-.3819-1.4433-.3819-.6348 0-1.2671.2068-1.795.6133-.8513.6548-1.7099 1.3027-2.5518 1.9256-.1244.0917-.3026.0767-.4147-.0355l-3.54017-3.54c-.11222-.1122-.12753-.2905-.03544-.4149.62355-.8429 1.27131-1.7014 1.92541-2.5517.7236-.9406.8143-2.2117.2313-3.2385-.8207-1.4447-1.45999-2.9878-1.90066-4.5865-.31336-1.1369-1.27608-1.9706-2.45274-2.1241-1.06225-.1386-2.12702-.2877-3.16466-.4427-.15302-.023-.2683-.1598-.2683-.3184v-5.0066c0-.1586.11528-.2954.2683-.3184 1.03764-.1552 2.1023-.3041 3.16444-.4427 1.17677-.1534 2.13949-.9871 2.45285-2.1241.44046-1.5986 1.07997-3.1418 1.90057-4.5865.5832-1.027.4925-2.2981-.2311-3.2385-.6524-.8483-1.30022-1.7067-1.92541-2.5517-.09187-.1244-.07667-.3029.03544-.4149l3.53997-3.54015c.112-.11222.2904-.1272.4147-.03544.8419.62279 1.7005 1.27061 2.5517 1.92559.9407.7234 2.2117.8143 3.2387.231 1.4441-.82035 2.9873-1.45987 4.5864-1.90065 1.1369-.31336 1.9708-1.27608 2.1243-2.45285.1389-1.06433.2877-2.12899.4427-3.16455.0229-.1528.1598-.26819.3184-.26819h5.0064c.1586 0 .2956.11528.3184.2683.155 1.03524.3039 2.09978.4428 3.16444.1534 1.17677.9873 2.13949 2.1241 2.45285 1.5991.44078 3.1422 1.0803 4.5866 1.90065 1.0268.5829 2.298.4924 3.2384-.2313.8512-.65478 1.7098-1.30261 2.5516-1.9254.1243-.09209.3028-.07689.4149.03544l3.5401 3.54006c.1122.1122.1273.2906.0354.4148-.624.8438-1.2718 1.7021-1.9254 2.5518-.7235.9407-.8143 2.2119-.231 3.2388.8204 1.4443 1.4598 2.9873 1.9006 4.5864.3134 1.1369 1.2763 1.9705 2.4526 2.1239 1.0627.1386 2.1275.2876 3.1647.4427.153.023.2683.1598.2683.3184v5.0064z"/><path d="m28.5 15.8447c-6.7025 0-12.1553 5.4528-12.1553 12.1553s5.4528 12.1553 12.1553 12.1553 12.1553-5.4528 12.1553-12.1553-5.4528-12.1553-12.1553-12.1553zm0 21.6956c-5.2606 0-9.5402-4.2798-9.5402-9.5403 0-5.2606 4.2798-9.5402 9.5402-9.5402 5.2605 0 9.5403 4.2797 9.5403 9.5402s-4.2796 9.5403-9.5403 9.5403z"/></g></svg>