<svg fill="none" height="56" viewBox="0 0 57 56" width="57" xmlns="http://www.w3.org/2000/svg" xmlns:xlink="http://www.w3.org/1999/xlink"><clipPath id="a"><path d="m.5 0h56v56h-56z"/></clipPath><g clip-path="url(#a)" fill="#3a5ba9"><path d="m30.1349 33.1335c-1.1552-1.6344-3.0106-2.6331-4.9999-2.7087-.0421-.0047-.0847-.0073-.128-.0073-2.5304 0-4.6213-1.9124-4.9065-4.3674.7286-.5306 1.4008-1.2039 1.9965-2.0104 1.2048-1.6311 1.9868-3.6692 2.2768-5.8732.0888-.0966.1636-.209.2173-.337.5101-1.2147.7688-2.5116.7688-3.8546 0-5.16476-3.9049-9.3665-8.7045-9.3665-1.2413 0-2.4456.28197-3.584.83836-.4255.03587-.8426.11243-1.243.22837-4.01254 1.15926-6.28043 6.01087-5.05532 10.81497.12327.4833.28.9587.46616 1.4127.05075.124.12184.233.20562.3281.46211 3.393 2.06806 6.2161 4.26444 7.8131-.2823 2.4581-2.37477 4.3737-4.90734 4.3737-.03894 0-.07744.0021-.1155.0058-3.43186.1213-6.18646 2.9489-6.18646 6.4098v6.9059c0 .6443.52226 1.1666 1.16659 1.1666h20.61181c.6442 0 1.1666-.5223 1.1666-1.1666s-.5224-1.1666-1.1666-1.1666h-19.44533v-5.7394c0-2.2515 1.83159-4.083 4.08296-4.083.03894 0 .07744-.0021.1155-.0058.84033-.0262 1.645-.1953 2.39072-.4844l5.52305 7.9715c.2179.3145.5762.5023.9589.5023s.7411-.1877.9589-.5023l5.5232-7.9715c.7459.2891 1.5504.4582 2.3907.4844.0381.0037.0766.0058.1155.0058 1.324 0 2.5716.6466 3.3371 1.7298.2273.3215.5875.4932.9536.4932.2328 0 .4678-.0695.6723-.214.5262-.3717.6511-1.0997.2794-1.6257zm-17.6592-25.21739c.306-.08837.6296-.14087.962-.15586.1713-.00765.3384-.05294.4902-.13267.8669-.45544 1.7844-.68644 2.7271-.68644 3.442 0 6.2534 3.02903 6.366 6.79896-.7015-.5305-1.5742-.8458-2.5194-.8458h-6.1008c-.3039 0-.5924-.0954-.834-.2757-.2068-.1544-.3665-.3615-.462-.5996-.2204-.5484-.7656-.891-1.3544-.8538-.5924.038-1.0908.4496-1.2401 1.0239-.2976 1.1433-.85322 2.208-1.60868 3.1122-.60506-3.3825.91853-6.61793 3.57408-7.38519zm-2.73583 9.87959c1.01893-.934 1.84353-2.0661 2.41923-3.3162.004.0029.008.0059.0121.0088.648.4837 1.4189.7392 2.2295.7392h6.1008c.7328 0 1.3657.4287 1.6662 1.0475-.0078 2.4234-.6983 4.6871-1.9475 6.3782-1.1781 1.5946-2.7109 2.4729-4.3162 2.4729-1.4856 0-2.932-.7675-4.0727-2.1609-1.1066-1.3518-1.83888-3.1713-2.09143-5.1695zm6.16423 19.7231-4.4643-6.4435c1.1976-.9937 2.0707-2.3642 2.4398-3.9274.65.2035 1.3279.3115 2.0244.3115.6928 0 1.3712-.1051 2.0256-.3081.3696 1.5617 1.2423 2.9308 2.4391 3.9239z"/><path d="m50.314 36.9092c-.0381-.0037-.0766-.0058-.1155-.0058-2.5339 0-4.6271-1.9174-4.9078-4.3775 1.4287-1.0404 2.6066-2.6003 3.3831-4.4974.1111.3636.3956.6572.7699.7732.1137.0352.2301.0524.3453.0524.3535 0 .6956-.1611.9206-.45 1.6276-2.0903 2.4736-4.8109 2.3826-7.6607-.0895-2.7956-1.0722-5.4201-2.7675-7.3897-1.7357-2.0166-4.0271-3.1389-6.4544-3.1621-.1288-.0053-.4489.0058-.5006.009-1.2471-.56573-2.5649-.82998-3.922-.78689-2.8027.08958-5.3808 1.48649-7.2591 3.93349-1.8253 2.3779-2.7732 5.4794-2.6692 8.7335.0176.5514.0612 1.0591.1316 1.5425.19 1.3868.572 2.715 1.1354 3.9475.1793.3923.5604.6537.9909.6795.4291.026.8402-.1879 1.0652-.5559.0939-.1535.2145-.3448.3476-.5322.5201 1.5799 1.3152 2.9994 2.3246 4.12.4306.4781.8957.8939 1.3854 1.2486-.2828 2.4576-2.375 4.3725-4.9072 4.3725-.0389 0-.0774.0021-.1155.0058-3.4315.1216-6.186 2.9495-6.186 6.4101v6.906c0 .6443.5224 1.1665 1.1666 1.1665h28.4753c.6442 0 1.1666-.5222 1.1666-1.1665v-6.906c.0002-3.4604-2.7544-6.2881-6.1859-6.4099zm-18.0829-12.2314c-.115-.4493-.2051-.9101-.2698-1.3809-.059-.4056-.0949-.8278-.1097-1.2905-.0868-2.7166.6902-5.2873 2.1879-7.2385 1.4447-1.8821 3.3918-2.9553 5.4828-3.0221.0699-.0023 1.5736-.087 3.1085.6865.1716.0865.3694.1266.562.1211.0221-.0006.6209-.029.6383-.0287 1.7522.0116 3.4302.8466 4.7253 2.3512 1.3487 1.5671 2.1314 3.6774 2.2038 5.9422.0393 1.2302-.1335 2.4259-.4995 3.5261-.1102-.2937-.2332-.583-.3685-.8675-1.1263-2.3964-3.0223-4.2526-5.3388-5.2268-.2934-.1234-.6244-.1215-.9163.0051-.2921.1266-.5196.367-.6299.6656-.1553.4195-.3435.8283-.5596 1.2147-.6107 1.0922-1.8421 1.742-3.2113 1.6941-.2055-.007-.4141-.0073-.6197-.0008-1.0088.0323-1.9925.2246-2.9291.5734-.9251.3491-2.4798 1.2251-3.4564 2.2758zm2.8699.635c.4423-.2963.913-.5404 1.4058-.7266.6939-.2584 1.4288-.4016 2.1842-.4258.1543-.005.3104-.0048.4644.0005 2.2525.0771 4.2894-1.0286 5.3286-2.887.0638-.1143.126-.2304.186-.3475 1.064.6555 1.9735 1.5794 2.6573 2.7007-.0059.0345-.011.0692-.0138.1049-.1789 2.2134-.9425 4.2447-2.1501 5.7197-1.1407 1.3936-2.587 2.1609-4.0727 2.1609-2.7464-.0002-5.1896-2.6108-5.9897-6.2998zm3.9707 8.3192c.6565.2052 1.3337.3135 2.019.3135.6983 0 1.3778-.1087 2.0295-.3133.4685 1.9866 1.7531 3.6604 3.4801 4.6479-.6737 2.4342-2.9124 4.1845-5.5042 4.1845-2.5921 0-4.8307-1.7504-5.5042-4.1847 1.7267-.9873 3.0113-2.6612 3.4798-4.6479zm15.0953 15.4268h-26.1422v-5.7394c0-2.2513 1.8316-4.083 4.083-4.083.0389 0 .0774-.0021.1155-.0058.4017-.0126.7956-.0568 1.1785-.1322 1.0133 3.3267 4.1139 5.6995 7.6942 5.6995 3.5802 0 6.6807-2.3728 7.6943-5.6994.3828.0754.7766.1196 1.1783.1321.038.0037.0765.0058.1155.0058 2.2513 0 4.0829 1.8316 4.0829 4.083z"/></g></svg>