<svg xmlns="http://www.w3.org/2000/svg" width="32" height="32" viewBox="0 0 32 32">
    <g fill="none" fill-rule="evenodd">
        <g fill-rule="nonzero">
            <g>
                <path fill="#016FD0" d="M0 0L31.921 0 31.921 17.232 30.341 19.7 31.921 21.898 31.921 31.921 0 31.921 0 15.676 0.987 14.541 0 13.455z" transform="translate(-499 -51) translate(499 51)"/>
                <path fill="#FFF" d="M6.196 22.243v-5.011h5.307l.569.742.588-.742h19.26v4.666s-.503.34-1.086.345H20.17l-.641-.79v.79h-2.104v-1.348s-.287.188-.908.188H15.8v1.16h-3.185l-.568-.758-.578.758H6.196zM0 13.455l1.197-2.79h2.069l.679 1.563v-1.563h2.572l.405 1.13.392-1.13H18.86v.568s.607-.568 1.605-.568l3.746.013.668 1.542v-1.555h2.152l.593.886v-.886h2.172v5.011h-2.172l-.568-.888v.888h-3.163l-.318-.79h-.85l-.313.79h-2.145c-.858 0-1.407-.556-1.407-.556v.556h-3.234l-.642-.79v.79H2.96l-.317-.79h-.848l-.316.79H0v-2.221z" transform="translate(-499 -51) translate(499 51)"/>
                <path fill="#016FD0" d="M1.62 11.283L.006 15.035h1.05l.299-.751h1.73l.297.751h1.074l-1.612-3.752H1.62zm.597.873l.528 1.313H1.688l.53-1.313zM4.567 15.035L4.567 11.282 6.06 11.288 6.929 13.707 7.776 11.282 9.258 11.282 9.258 15.035 8.32 15.035 8.32 12.27 7.325 15.035 6.502 15.035 5.505 12.27 5.505 15.035zM9.9 15.035L9.9 11.282 12.961 11.282 12.961 12.121 10.848 12.121 10.848 12.763 12.911 12.763 12.911 13.553 10.848 13.553 10.848 14.22 12.961 14.22 12.961 15.035zM13.504 11.283v3.752h.938v-1.333h.395l1.125 1.333h1.146l-1.234-1.382c.506-.043 1.029-.478 1.029-1.153 0-.79-.62-1.217-1.311-1.217h-2.088zm.938.839h1.072c.258 0 .445.201.445.395 0 .25-.243.395-.43.395h-1.087v-.79zM18.244 15.035L17.286 15.035 17.286 11.282 18.244 11.282zM20.515 15.035h-.207c-1 0-1.607-.789-1.607-1.861 0-1.1.6-1.892 1.863-1.892h1.037v.889h-1.074c-.513 0-.876.4-.876 1.012 0 .727.415 1.032 1.012 1.032h.247l-.395.82zM22.556 11.283l-1.614 3.752h1.051l.298-.751h1.731l.296.751h1.074l-1.612-3.752h-1.224zm.597.873l.528 1.313h-1.057l.53-1.313zM25.502 15.035L25.502 11.282 26.695 11.282 28.217 13.64 28.217 11.282 29.156 11.282 29.156 15.035 28.001 15.035 26.44 12.615 26.44 15.035zM6.838 21.601L6.838 17.849 9.9 17.849 9.9 18.688 7.786 18.688 7.786 19.33 9.85 19.33 9.85 20.12 7.786 20.12 7.786 20.787 9.9 20.787 9.9 21.601zM21.838 21.601L21.838 17.849 24.9 17.849 24.9 18.688 22.786 18.688 22.786 19.33 24.84 19.33 24.84 20.12 22.786 20.12 22.786 20.787 24.9 20.787 24.9 21.601zM10.018 21.601L11.509 19.748 9.983 17.849 11.165 17.849 12.074 19.023 12.985 17.849 14.121 17.849 12.615 19.725 14.108 21.601 12.927 21.601 12.044 20.446 11.183 21.601zM14.22 17.85v3.752h.963v-1.185h.987c.836 0 1.469-.443 1.469-1.305 0-.715-.497-1.263-1.347-1.263H14.22zm.963.848h1.04c.27 0 .462.166.462.432 0 .25-.192.432-.466.432h-1.036v-.864zM18.046 17.849V21.6h.938v-1.333h.395l1.125 1.333h1.147l-1.235-1.382c.507-.043 1.03-.478 1.03-1.153 0-.79-.62-1.217-1.312-1.217h-2.088zm.938.84h1.073c.257 0 .444.2.444.394 0 .25-.242.395-.43.395h-1.087v-.79zM25.334 21.601v-.814h1.877c.278 0 .399-.15.399-.315 0-.158-.12-.317-.399-.317h-.848c-.737 0-1.148-.45-1.148-1.124 0-.602.376-1.182 1.472-1.182h1.827l-.395.844h-1.58c-.302 0-.395.159-.395.31 0 .156.115.327.345.327h.89c.821 0 1.178.466 1.178 1.077 0 .657-.398 1.194-1.224 1.194h-1.999zM28.777 21.601v-.814h1.878c.277 0 .398-.15.398-.315 0-.158-.12-.317-.398-.317h-.849c-.737 0-1.148-.45-1.148-1.124 0-.602.376-1.182 1.472-1.182h1.827l-.395.844h-1.58c-.302 0-.395.159-.395.31 0 .156.115.327.345.327h.89c.821 0 1.178.466 1.178 1.077 0 .657-.398 1.194-1.224 1.194h-1.999z" transform="translate(-499 -51) translate(499 51)"/>
            </g>
        </g>
    </g>
</svg>
