<svg fill="none" height="56" viewBox="0 0 56 56" width="56" xmlns="http://www.w3.org/2000/svg"><circle cx="28" cy="28" fill="#3a5ba9" r="28"/><path d="m31.375 35c-.4125 0-.7656-.1469-1.0594-.4406-.2937-.2938-.4406-.6469-.4406-1.0594v-11c0-.4125.1469-.7656.4406-1.0594.2938-.2937.6469-.4406 1.0594-.4406h1.375c.4125 0 .7656.1469 1.0594.4406.2937.2938.4406.6469.4406 1.0594v11c0 .4125-.1469.7656-.4406 1.0594-.2938.2937-.6469.4406-1.0594.4406zm-8.125 0c-.4125 0-.7656-.1469-1.0594-.4406-.2937-.2938-.4406-.6469-.4406-1.0594v-11c0-.4125.1469-.7656.4406-1.0594.2938-.2937.6469-.4406 1.0594-.4406h1.375c.4125 0 .7656.1469 1.0594.4406.2937.2938.4406.6469.4406 1.0594v11c0 .4125-.1469.7656-.4406 1.0594-.2938.2937-.6469.4406-1.0594.4406z" fill="#fff"/></svg>