<svg fill="none" height="40" viewBox="0 0 211 40" width="211" xmlns="http://www.w3.org/2000/svg"><g fill="#757780"><path d="m.103516.751024 15.391284-.002503c2.8963-.000471 5.16.724269 6.726 1.991389 1.7658 1.47095 2.7624 3.62094 2.7628 6.19982.0005 2.98447-1.2225 4.88887-3.7108 6.02217v.1366c3.258 1.0861 5.1164 3.982 5.117 7.513.0005 3.3502-1.2664 5.9756-3.3932 7.5607-1.7652 1.2676-4.1191 1.9027-7.1982 1.9032l-15.662466.0026-.005094-31.32698zm13.873684 12.265876c1.6751-.0003 2.852-.9043 2.8517-2.7622-.0003-1.76553-1.2678-2.66913-2.8967-2.66886l-5.29647.00086.00088 5.3869 5.33849-.0009zm.7713 12.1313c1.8558-.0003 3.2575-1.1313 3.2572-3.2163-.0004-2.1732-1.4718-3.2154-3.3045-3.2151l-6.06576.0009.00105 6.4272zm13.1699-24.382777 8.0582-.00131.0051 31.371087-8.0582.0013z"/><path d="m37.5801 20.9356c-.0012-7.062 4.5694-11.86108 11.6314-11.86222 7.0619-.00115 11.5437 4.79652 11.5448 11.85842.0012 7.104-4.479 11.8611-11.541 11.8622-7.062.0012-11.6341-4.7481-11.6352-11.8584zm15.2105-.0025c-.0006-3.8925-1.2684-6.3828-3.6686-6.3824-2.4003.0003-3.5727 2.4449-3.572 6.3836.0006 3.9387 1.178 6.3829 3.574 6.3826 2.4003.0458 3.6673-2.4009 3.6666-6.3838z"/><path d="m61.748 20.9326c-.0011-7.0619 4.5695-11.86105 11.6314-11.8622 7.062-.00115 11.5438 4.7965 11.5449 11.8585.0012 7.104-4.479 11.861-11.541 11.8622-7.062.0011-11.6341-4.7482-11.6353-11.8585zm15.2106-.0024c-.0007-3.8925-1.2684-6.3829-3.6687-6.3825-2.4002.0004-3.5726 2.4449-3.5719 6.3836.0006 3.9388 1.178 6.383 3.574 6.3826 2.4003.0458 3.6672-2.4009 3.6666-6.3837z"/><path d="m86.5679 9.70265 7.4886-.00122.0005 3.35027.1367-.0001c1.4708-2.6274 3.5303-4.02963 6.7253-4.03015 2.806-.00046 4.935 1.40325 6.022 3.84535l.137-.0001c1.811-2.94275 4.209-3.84694 6.924-3.84738 5.206-.00085 7.424 3.84508 7.425 8.96078l.002 14.1239-7.877.0013-.002-12.6737c0-2.3077-.726-3.7831-2.716-3.7828-1.946.0003-2.942 1.8123-2.942 4.2566l.002 12.2219-7.787.0013-.002-12.6738c0-2.3077-.7258-3.7831-2.7162-3.7828-1.9463.0004-2.9422 1.8122-2.9418 4.2566l.002 12.2218-7.8775.0013-.0036-22.40492zm44.8191 19.45515-.09.0001v2.8962l-7.469.0012-.006-31.366879 7.855-.001277.002 11.315956h.136c1.471-1.9465 3.485-2.98513 6.383-2.9856 5.612-.00091 8.87 5.068 8.871 11.8105.002 7.6043-3.529 11.9976-9.367 11.9985-2.491.0004-4.982-1.1762-6.338-3.6665zm7.649-8.3747c0-3.6214-1.314-5.9268-3.712-5.9264-2.399.0004-3.939 2.3084-3.938 5.9276 0 3.5731 1.539 5.9268 3.94 5.9264 2.4-.0004 3.711-2.3083 3.71-5.9276zm8.916.0448c-.001-6.9716 4.616-11.8611 11.314-11.86219 3.35-.00054 5.885 1.03949 7.878 2.89499 2.581 2.4902 3.759 6.4266 3.669 11.0001l-15.027.0024c.315 2.8058 1.676 4.2097 4.03 4.2093 1.357-.0002 2.58-.6352 3.078-2.1276l7.56-.0012c-1.312 5.1159-5.295 7.6934-10.928 7.6943-6.925.0473-11.59-4.6157-11.591-11.8101zm7.831-2.309 7.152-.0012c-.137-2.7155-1.629-4.1192-3.485-4.1189-2.173.0004-3.35 1.5391-3.667 4.1201zm23.947-4.9851h.136c1.629-3.1235 3.758-4.30092 6.427-4.30136.635-.0001 1.04.09022 1.267.22679l.001 6.88127h-.18c-4.618-.8147-7.356 1.3589-7.356 6.4284l.002 9.3256-7.877.0013-.004-22.36293 7.47-.00122v3.78325z"/><path d="m188.485 32.0955 7.56-.0012c.273.95 1.268 1.9019 3.17 1.9016 2.535-.0004 3.394-1.5853 3.394-3.893l-.001-1.629-.18.0001c-1.268 1.4714-2.896 2.5352-5.387 2.5356-4.845.0008-9.009-3.5715-9.01-10.5452-.001-6.4272 3.439-11.40904 8.645-11.40988 2.985-.00049 4.845 1.22238 6.022 3.12228l.137-.0001-.001-2.44431 7.464-.00122.003 19.37423c0 3.573-1.266 6.3832-3.122 8.0124-1.946 1.7658-4.75 2.4451-7.923 2.4457-5.885.0009-10.047-2.4427-10.775-7.468zm14.437-12.0455c0-2.8059-1.314-5.0441-3.622-5.0437-2.217.0004-3.621 1.9931-3.621 5.0449.001 2.9845 1.405 5.1596 3.623 5.1593 2.307-.0004 3.621-2.218 3.62-5.1605z"/></g></svg>