<svg fill="none" height="56" viewBox="0 0 57 56" width="57" xmlns="http://www.w3.org/2000/svg" xmlns:xlink="http://www.w3.org/1999/xlink"><clipPath id="a"><path d="m.5 0h56v56h-56z"/></clipPath><g clip-path="url(#a)" fill="#3a5ba9"><path d="m50.1517 23.4426c-.3862-2.9068-1.7587-5.5841-3.9157-7.6077-2.3652-2.2187-5.4549-3.4406-8.6999-3.4406-.5018 0-1.0191.0352-1.5687.1071-2.4764-1.8901-5.5281-2.92523-8.6553-2.92523-3.3461 0-6.5779 1.18203-9.1493 3.33733-3.8286.27-7.4617 1.8497-10.27178 4.4752-2.8116 2.6269-4.63477 6.1423-5.15988 9.9336-1.44156 1.7847-2.23114 4.0059-2.23114 6.2973 0 5.3823 4.27711 9.8023 9.6114 10.0271 2.7502 1.8183 5.9359 2.7775 9.2377 2.7775 4.1522 0 8.1103-1.5241 11.2011-4.3015h10.5752c1.5309.8392 3.2458 1.2812 4.9819 1.2812 5.7306 0 10.3927-4.6621 10.3927-10.3927 0-4.2048-2.5197-7.9543-6.3483-9.5686zm-4.0443 17.508c-1.4111 0-2.8055-.3839-4.0325-1.1103-.1892-.112-.4051-.1711-.6249-.1711h-9.214c.2603-.6731.3979-1.3946.3979-2.1375 0-1.5818-.6166-3.0697-1.7364-4.1894-.4552-.455-1.193-.455-1.6482 0-.4551.4551-.4551 1.193 0 1.648.6796.6796 1.054 1.582 1.054 2.5415 0 .8463-.2917 1.6484-.8271 2.2922-.0908.0504-.1759.1112-.2522.1839-2.6829 2.5557-6.1899 3.9631-9.8749 3.9631-2.9246 0-5.7427-.8819-8.1496-2.5501-.0327-.0227-.0668-.0431-.1014-.0624-1.59129-1.8353-1.51637-4.6242.2275-6.368.4551-.4551.4551-1.1929 0-1.648-.4552-.455-1.1929-.455-1.64816 0-2.01086 2.0108-2.5398 4.9492-1.59097 7.4501-2.98102-1.0235-5.13319-3.8552-5.13319-7.173 0-1.826.66533-3.5939 1.87338-4.9784.16318-.1869.26567-.4191.29411-.6656.38795-3.3554 1.96645-6.4785 4.44489-8.794 1.89144-1.7672 4.21954-2.9786 6.72184-3.5255-.2961.7695-.4528 1.594-.4528 2.4428 0 1.8153.7078 3.523 1.9928 4.808.2275.2275.5258.3413.824.3413.2983 0 .5965-.1139.8241-.3413.4551-.4551.4551-1.1931 0-1.6482-.8451-.8449-1.3103-1.9671-1.3103-3.1599 0-1.0824.3843-2.106 1.0866-2.9177.0756-.0427.1474-.0926.2131-.1512 2.172-1.9348 4.9587-3.0004 7.8469-3.0004 2.0853 0 4.1291.5569 5.9168 1.5903-1.5189 1.0847-2.4104 2.9488-2.158 4.9263.0753.5885.5767 1.0179 1.1546 1.0179.0491 0 .099-.0031.1491-.0094.6384-.0816 1.0899-.6653 1.0084-1.3036-.2028-1.5879.924-3.0448 2.512-3.2476.0597-.0077.1171-.021.1733-.0371.5262-.0783 1.0104-.1189 1.4679-.1189 4.8625 0 9.0119 3.4411 10.0332 8.0698-2.3913-.01-4.6553 1.4377-5.5624 3.7991-.2309.6008.069 1.2749.6701 1.5058.1373.0528.2785.0779.4176.0779.4683 0 .91-.2845 1.088-.7479.6459-1.6815 2.4254-2.6001 4.1335-2.22.0927.0635.194.116.3041.1528 3.2458 1.0834 5.4266 4.108 5.4266 7.5261 0 4.378-3.5616 7.9396-7.9393 7.9396z"/><path d="m48.504 31.4434c-2.3742 0-4.3058 1.9314-4.3058 4.3057 0 .6437.5218 1.1653 1.1653 1.1653.6436 0 1.1653-.5217 1.1653-1.1653 0-1.0891.886-1.9752 1.9752-1.9752.6437 0 1.1653-.5217 1.1653-1.1653 0-.6435-.5216-1.1652-1.1653-1.1652z"/><path d="m21.6713 30.0469c-2.8197 0-5.1137 2.2939-5.1137 5.1136 0 .6437.5217 1.1653 1.1653 1.1653.6437 0 1.1653-.5218 1.1653-1.1653 0-1.5345 1.2485-2.7831 2.783-2.7831.6437 0 1.1653-.5217 1.1653-1.1652.0002-.6436-.5215-1.1653-1.1652-1.1653z"/><path d="m35.6021 26.3031c-1.379-3.0696-4.9982-4.4451-8.0678-3.0662-.5871.2635-.8492.9535-.5855 1.5405.2636.5869.9531.8492 1.5406.5855 1.8974-.8519 4.1345-.0022 4.9867 1.8952.194.4322.6188.6881 1.0638.6881.1595 0 .3218-.033.4767-.1026.5872-.2637.8493-.9533.5855-1.5405z"/></g></svg>