<svg fill="none" height="40" viewBox="0 0 126 40" width="126" xmlns="http://www.w3.org/2000/svg"><path clip-rule="evenodd" d="m10.6164 39.4993 2.9028-.0005-.0025-15.5138-2.9028.0005zm10.6406-.2345 2.5999-.0004-.0016-9.7882 10.9451 10.0192-.0024-15.2811-2.5927.0004.0016 9.621-10.9524-9.8519zm19.4779-3.7604c1.4153 1.1027 3.1139 1.74 4.9348 1.7397 1.7736-.0003 3.0177-.6114 3.0175-1.9603-.0002-1.1757-.7938-1.6361-2.1835-2.151l-2.2499-.7814c-2.0742-.7365-3.6517-1.8126-3.6521-4.2863-.0005-2.6458 2.3872-4.0849 5.2427-4.0853 1.7494-.0003 3.3438.4394 4.5894 1.2185l.0004 2.624c-1.2953-.9572-2.7128-1.6164-4.5337-1.6161-1.5677.0003-2.7391.5859-2.7389 1.8064.0001 1.1029.7356 1.544 2.0308 1.9874l2.5067.8795c2.4292.854 3.544 2.1786 3.5444 4.3578.0004 2.7416-2.4102 4.2558-5.5735 4.2563-2.0789.0003-3.8466-.5812-4.9346-1.3155zm17.2816 3.9872 2.9015-.0005-.0025-15.5138-2.9016.0005zm16.5135-2.3504c3.2711-.0005 5.019-2.1 5.0184-5.4136-.0005-3.3379-1.7503-5.4296-5.0201-5.4291l-3.2347.0006.0017 10.8426zm-5.8779-13.1651 5.9727-.001c4.5977-.0007 7.5712 3.0288 7.572 7.752.0007 4.7269-2.9718 7.761-7.5695 7.7618l-5.9727.0009zm28.0548-.0046.0003 2.3234-7.023.0012.0006 3.733 6.2986-.001.0003 2.2967-6.2998.0011.0008 4.8129 7.0243-.0012.0004 2.3477-9.6739.0016-.0025-15.5138zm10.3011 7.0232 2.88-.0005c1.705-.0003 2.665-.9361 2.665-2.3748 0-1.4386-.961-2.3754-2.666-2.3751l-2.88.0005zm.001 2.1937.001 6.2952-2.563.0004-.002-15.5137 5.49-.0009c3.131-.0005 5.157 1.6123 5.157 4.6496.001 2.5974-1.123 4.0895-3.519 4.4729l5.45 6.3901-2.915.0005-5.276-6.2932-1.822.0003zm-97.4116-24.48621c1.1351-.41591 2.0193-1.66321 2.019-3.37821-.0004-2.85793-2.02025-4.338684-5.25133-4.338159l-5.427526.000883.002594 15.953696 5.931512-.0009c3.23105-.0006 5.25035-1.5862 5.24995-4.5738-.0003-1.6896-1.0606-3.17046-2.5242-3.66351zm-6.10977-1.01225-.00071-4.36446 2.8543-.00047c1.79303-.00029 2.75143.64919 2.75167 2.15573.00025 1.50653-.95915 2.20844-2.75096 2.20873zm.00037 2.23495 3.33163-.00054c1.76879-.00029 2.72723.88185 2.72747 2.33755.00023 1.4289-.95913 2.3393-2.7255 2.3396l-3.33163.0005-.00076-4.67832zm20.4768 7.27121c3.7108-.0006 6.2098-2.236 6.2091-6.6005l-.0016-9.61365-2.6253.000427.0015 9.301023c.0005 3.0664-1.2617 4.4967-3.5841 4.4971-2.3225.0004-3.5839-1.4296-3.5844-4.496l-.0015-9.300957-2.6253.000427.0015 9.58703c.0008 4.3911 2.5247 6.6257 6.2101 6.6251zm12.391-1.4056c1.0856.7804 2.8533 1.4031 4.9225 1.4027 3.156-.0005 5.5533-1.6128 5.5528-4.5217-.0003-2.3125-1.1103-3.71582-3.5347-4.62443l-2.4982-.93527c-1.2879-.46642-2.0198-.93414-2.02-2.10373-.0002-1.29928 1.1604-1.92244 2.7256-1.9227 1.8173-.00029 3.2312.70002 4.5192 1.71427l-.0005-2.78157c-1.237-.83003-2.8278-1.297608-4.57-1.297325-2.8518.000464-5.2249 1.534045-5.2245 4.339855.0005 2.62401 1.5659 3.76669 3.6353 4.54567l2.2475.83113c1.3884.5451 2.1711 1.0395 2.1713 2.2867.0003 1.4289-1.2366 2.0788-3.0041 2.0791-1.8173.0003-3.5087-.6758-4.9227-1.8439zm19.8541-14.812784-2.6241.000427.0026 15.952557 2.6241-.0005zm7.4921 15.931884 2.5296-.0004-.0017-10.37846 10.6484 10.62396-.0026-16.204585-2.5224.00041.0017 10.201475-10.6556-10.445781zm29.5786-15.934276.0004 2.388876-6.8159.00111.0006 3.83966 6.1121-.00099.0003 2.36221-6.112.00099.0008 4.94862 6.8159-.0011.0004 2.4144-9.3891.0015-.0026-15.953749zm6.1145 14.794076c1.0859.7803 2.8519 1.403 4.9229 1.4027 3.154-.0005 5.553-1.6117 5.552-4.5217 0-2.3125-1.111-3.71466-3.534-4.62449l-2.5-.93406c-1.288-.46763-2.019-.93534-2.02-2.10494 0-1.29928 1.161-1.92244 2.726-1.92269 1.817-.0003 3.231.70123 4.519 1.71426v-2.78036c-1.237-.83124-2.828-1.298817-4.57-1.298534-2.852.000464-5.2253 1.534044-5.2249 4.339854.0004 2.62401 1.5659 3.76669 3.6349 4.54568l2.248.83108c1.388.5452 2.171 1.0395 2.171 2.2867 0 1.429-1.235 2.0788-3.004 2.0791-1.817.0003-3.509-.6745-4.9214-1.8439zm15.8539-.0026c1.085.7804 2.853 1.403 4.922 1.4027 3.156-.0005 5.554-1.6117 5.553-4.5217 0-2.3125-1.111-3.71464-3.535-4.62447l-2.499-.93406c-1.287-.46762-2.02-.93534-2.02-2.10494 0-1.29927 1.162-1.92244 2.726-1.92269 1.817-.0003 3.232.70123 4.519 1.71426l-.001-2.78036c-1.236-.83124-2.826-1.298815-4.568-1.298532-2.854.000464-5.225 1.534042-5.225 4.339862 0 2.62401 1.566 3.76668 3.635 4.54567l2.248.83106c1.388.5452 2.171 1.0396 2.171 2.2867 0 1.429-1.236 2.0788-3.004 2.0791-1.817.0003-3.509-.6745-4.923-1.8439z" fill="#757780" fill-rule="evenodd"/></svg>