<svg xmlns="http://www.w3.org/2000/svg" width="33" height="23" viewBox="0 0 33 23">
    <g fill="none" fill-rule="evenodd">
        <g fill-rule="nonzero">
            <g>
                <path fill="#006AC9" d="M10.662 6.439c0 1.596.979 2.936 2.37 3.45V2.989c-1.391.515-2.37 1.854-2.37 3.45z" transform="translate(-1246 -55) translate(1246 55)"/>
                <path fill="#004A97" d="M15.659 2.988V9.89c1.39-.515 2.37-1.906 2.37-3.451 0-1.597-.98-2.936-2.37-3.451z" transform="translate(-1246 -55) translate(1246 55)"/>
                <g fill="#023563">
                    <path d="M7.74 9.89c1.39-.515 2.369-1.906 2.369-3.451M9.439.052H6.452C2.897.052.012 2.678.012 6.49c0 3.503 2.885 6.336 6.44 6.336h2.987c3.503 0 6.696-2.833 6.696-6.336C16.084 2.678 12.89.052 9.44.052zM6.452 12.259C3.206 12.26.63 9.632.63 6.44c0-3.245 2.627-5.872 5.82-5.872 3.246 0 5.873 2.627 5.873 5.872-.052 3.245-2.679 5.82-5.872 5.82z" transform="translate(-1246 -55) translate(1246 55) translate(7.92)"/>
                </g>
                <g fill="#004A97">
                    <path d="M1.34 4.327c0 .515.36.566.72.566 1.443 0 1.958-1.081 1.958-2.112 0-1.287-.824-2.163-2.112-2.163-.258 0-.412 0-.515.052v3.657h-.052zM.67 1.133C.67.515.36.567.052.567V.412h1.957c1.751 0 2.678 1.185 2.678 2.37 0 .67-.412 2.369-2.781 2.369H0v-.155c.412-.051.618-.051.618-.515V1.133H.67zM5.718.979c-.155 0-.31-.155-.31-.36 0-.155.155-.31.31-.31.154 0 .309.155.309.31 0 .205-.155.36-.31.36m-.72 3.966h.154c.206 0 .309 0 .309-.206V2.885c0-.31-.103-.361-.36-.464v-.103c.308-.103.669-.206.72-.258.052-.051.104-.051.104-.051.051 0 .051.051.051.103v2.575c0 .206.155.206.36.206h.104v.155H4.996v-.103zM7.057 2.936c0-.258-.052-.309-.412-.464V2.37c.309-.103.566-.206.875-.309 0 0 .052 0 .052.052v.463c.36-.257.721-.515 1.185-.515.566 0 .772.412.772.928v1.75c0 .207.155.207.36.207h.104v.154H8.55v-.154h.103c.206 0 .309 0 .309-.206V2.988c0-.361-.258-.567-.619-.567-.206 0-.566.154-.772.309v2.009c0 .206.154.206.36.206h.103v.154H6.593v-.154h.155c.206 0 .309 0 .309-.206V2.936zM11.693 3.039c.154 0 .206-.103.206-.154 0-.361-.206-.619-.567-.619-.412 0-.721.31-.773.773h1.134zm-1.185.206v.412c.051.618.463 1.185.979 1.185.36 0 .67-.206.927-.464l.103.103c-.31.412-.721.773-1.237.773-1.081 0-1.287-1.03-1.287-1.494 0-1.34.875-1.7 1.339-1.7.567 0 1.133.36 1.133 1.082v.103H10.508zM12.62 4.945h.206c.206 0 .309 0 .309-.206V2.833c0-.206-.258-.258-.36-.31v-.102c.514-.206.772-.36.823-.36.052 0 .052 0 .052.102v.618c.154-.257.463-.67.876-.67.154 0 .36.104.36.361 0 .206-.103.361-.309.361-.206 0-.206-.155-.464-.155-.103 0-.515.155-.515.567v1.597c0 .206.155.206.31.206h.36v.154h-1.751v-.257h.103zM15.247 4.172c.103.464.36.824.875.824.412 0 .567-.257.567-.463 0-.773-1.494-.515-1.494-1.648 0-.361.31-.876 1.03-.876.206 0 .515.051.773.206l.051.67h-.154c-.052-.413-.31-.67-.721-.67-.258 0-.515.154-.515.463 0 .773 1.545.567 1.545 1.597 0 .464-.36.927-1.185.927-.257 0-.566-.103-.824-.206l-.051-.772.103-.052zM23.282 1.597h-.154c-.103-.773-.67-1.082-1.443-1.082-.772 0-1.906.515-1.906 2.163 0 1.34.98 2.318 2.01 2.318.669 0 1.236-.463 1.339-1.184l.154.051-.154.979c-.31.154-1.03.36-1.494.36-1.597 0-2.576-1.03-2.576-2.524 0-1.39 1.237-2.369 2.576-2.369.566 0 1.081.155 1.597.36l.051.928zM23.54 4.945h.103c.206 0 .309 0 .309-.206V.979c0-.464-.103-.464-.36-.515V.36c.257-.103.566-.206.72-.31.052-.051.103-.051.155-.051.051 0 .051.052.051.103V4.79c0 .206.155.206.36.206h.104v.155H23.54v-.206zM27.866 4.739c0 .103.052.103.206.103h.258v.154c-.31.052-.824.155-.979.206H27.3v-.566c-.412.309-.721.566-1.185.566-.36 0-.721-.257-.721-.824V2.627c0-.155-.052-.36-.412-.36v-.104c.257 0 .773-.051.876-.051.051 0 .051.051.051.206v1.751c0 .206 0 .773.567.773.206 0 .515-.155.824-.412V2.627c0-.155-.31-.206-.567-.258v-.103c.618-.051.979-.103 1.03-.103.052 0 .052.052.052.103V4.74h.051zM29.206 4.327c0 .257.257.67.72.67.722 0 1.03-.722 1.03-1.288 0-.721-.566-1.34-1.08-1.34-.258 0-.464.155-.619.31v1.648h-.051zm0-1.803c.257-.206.618-.464 1.03-.464.772 0 1.236.67 1.236 1.443 0 .875-.67 1.75-1.597 1.75-.515 0-.772-.154-.927-.257l-.206.155-.154-.052c.051-.412.103-.772.103-1.184V1.03c0-.463-.103-.463-.361-.515V.412c.258-.103.567-.206.721-.309.052-.051.103-.051.155-.051.051 0 .051.051.051.103v2.369h-.051z" transform="translate(-1246 -55) translate(1246 55) translate(0 12.877)"/>
                </g>
                <g fill="#006AC9">
                    <path d="M.052 2.575h.051c.155 0 .258 0 .258-.206V.464C.36.258.206.258.103.258H.052V.155h1.133v.103h-.052c-.154 0-.257 0-.257.206v1.905c0 .206.103.206.257.206h.052v.103H.103v-.103H.052z" transform="translate(-1246 -55) translate(1246 55) translate(0 19.316)"/>
                    <path d="M1.185 2.678v-.103h-.052c-.154 0-.309 0-.309-.206V.464c0-.206.155-.206.31-.206h.05V.155H.104v.103h.052c.154 0 .309 0 .309.206v1.905c0 .206-.155.206-.31.206H.104v.103H1.185m0 .052H.103v-.155h.052c.154 0 .257 0 .257-.206V.464C.412.258.31.258.155.258H.052V.155h1.133v.103h-.052c-.154 0-.257 0-.257.206v1.905c0 .206.103.206.257.206h.052v.155zM3.709 1.957V.567c0-.31-.206-.361-.31-.361h-.102V.103h.978v.103h-.051c-.155 0-.31.052-.31.464v2.008H3.76L1.854.567V2.06c0 .31.052.412.36.412h.052v.103h-.978.051c.258 0 .31-.154.31-.463V.567c0-.206-.155-.31-.31-.31V.156h.722l1.648 1.802z" transform="translate(-1246 -55) translate(1246 55) translate(0 19.316)"/>
                    <path d="M3.76 2.73h.103V.721c0-.463.206-.463.36-.463h.052V.155h-.927v.103H3.4c.103 0 .36.051.36.36v1.39L2.112.156H1.39v.103h.051c.155 0 .36.154.36.36v1.545c0 .31-.102.464-.36.464h-.051v.103h.927v-.103h-.103c-.31 0-.36-.103-.36-.464V.618L3.76 2.73zm.155.051H3.76L1.906.721v1.494c0 .309.051.412.309.412h.103v.103H1.339v-.155h.052c.257 0 .309-.154.309-.463V.567c0-.206-.155-.31-.31-.31h-.102V.156h.772l1.597 1.802V.618c0-.309-.206-.309-.309-.309h-.051V.206h.978v.103h-.051c-.155 0-.31 0-.31.464V2.78zM4.842.31c-.258 0-.31.05-.36.308h-.104c0-.103.052-.206.052-.309V0h.103c.051.103.103.103.206.103h1.906c.103 0 .206 0 .206-.103h.103c0 .103-.052.206-.052.31v.308L6.8.67c0-.155 0-.36-.257-.36h-.618v1.956c0 .258.103.31.309.31h.051v.102H5.048v-.103h.051c.206 0 .31 0 .31-.309V.31h-.567z" transform="translate(-1246 -55) translate(1246 55) translate(0 19.316)"/>
                    <path d="M6.284 2.73H5.048v-.155h.051c.206 0 .31 0 .31-.309V.31h-.567.618v1.957c0 .31-.103.31-.31.31H5.1v.102h.618c.154 0 .412 0 .566.052v-.103h-.051c-.155 0-.31-.052-.31-.31V.362h.619c.257 0 .257.206.309.36L6.954.67V.36c0-.102 0-.205.051-.257h-.051c0 .103-.103.103-.206.103H4.842c-.103 0-.206 0-.206-.103H4.48v.31c0 .102-.051.205-.051.308h.103c.051-.257.103-.36.36-.309-.257 0-.257.052-.309.31h-.206c0-.104.052-.207.052-.31V.103h.103c0 .103.103.103.206.103h1.906c.103 0 .154 0 .206-.103h.103c0 .103-.052.206-.052.31V.72h-.154c0-.154 0-.36-.258-.36h-.566v1.957c0 .257.103.309.309.309h.103l-.052.103zM7.057 2.575h.051c.155 0 .258 0 .258-.206V.464c0-.206-.155-.206-.258-.206h-.051V.155H8.91V.72h-.103c0-.257-.051-.412-.464-.412H7.83v.979h.464c.206 0 .258-.103.309-.31h.103v.825h-.103c0-.206-.051-.36-.309-.36h-.464v.875c0 .257.206.257.464.257.464 0 .618-.051.773-.463h.103c-.052.206-.103.412-.103.566H7.108v-.103h-.051z" transform="translate(-1246 -55) translate(1246 55) translate(0 19.316)"/>
                    <path d="M9.014 2.678c.052-.206.052-.36.103-.566h-.051c-.103.412-.31.463-.773.463-.206 0-.464 0-.464-.257v-.876h.464c.258 0 .258.155.309.36h.103v-.411-.412h-.103c0 .206-.103.309-.309.309h-.464V.309h.515c.361 0 .464.206.464.412h.103v-.36-.155H7.108v.103h.052c.154 0 .309 0 .309.206v1.906c0 .206-.155.206-.31.206h-.05v.103h.978c.257-.052.67-.052.927-.052m0 .052H7.057v-.155h.051c.155 0 .258 0 .258-.206V.464c0-.155-.103-.206-.258-.206h-.051V.155H8.91V.72l-.103.052c0-.258-.051-.412-.412-.412h-.515v.927h.412c.206 0 .258-.103.258-.31h.103v.825H8.55c0-.206-.052-.36-.258-.36h-.412v.823c0 .206.206.206.412.206.464 0 .618 0 .721-.412l.103.052c0 .206-.051.412-.103.618zM10.096 1.39h.154c.36 0 .567-.154.567-.566 0-.309-.206-.515-.515-.515h-.206v1.082zM9.632.516c0-.257-.154-.257-.257-.257h-.052V.155h1.133c.464 0 .876.103.876.67 0 .308-.206.514-.515.669l.618.927c.103.154.155.206.36.206v.103h-.72c-.258-.36-.516-.773-.773-1.185h-.258v.773c0 .257.155.309.31.309h.05v.103H9.273v-.155h.051c.155 0 .258-.051.258-.206V.515h.051z" transform="translate(-1246 -55) translate(1246 55) translate(0 19.316)"/>
                    <path d="M10.302 1.39c.36 0 .566-.102.566-.566 0-.309-.206-.515-.515-.515h-.206v1.082h.155zm-.206 0V.259h.206c.309 0 .566.206.566.566 0 .464-.206.567-.566.567h-.206zm0 .104h.257c.258.412.464.824.773 1.184h.721v-.103c-.154 0-.257-.051-.36-.206l-.619-.978c.31-.103.516-.31.516-.618 0-.515-.413-.618-.876-.618H9.375v.103h.051c.103 0 .258 0 .258.309V2.42c0 .154-.155.206-.258.206h-.103v.103h1.133v-.103h-.051c-.155 0-.31 0-.31-.31v-.823zm1.751 1.236h-.721c-.258-.36-.515-.773-.773-1.185h-.206v.773c0 .257.103.257.31.257h.102v.103H9.426v-.103h.052c.154 0 .257-.051.257-.206V.515c0-.257-.154-.257-.257-.257h-.155V.155h1.133c.464 0 .876.154.876.67 0 .308-.206.514-.515.669l.618.927c.103.154.155.206.36.206l.052.103zM14.32 1.957V.567c0-.31-.207-.361-.31-.361h-.103V.103H14.886v.103h-.051c-.155 0-.31.052-.31.464v2.008h-.154L12.465.567V2.06c0 .31.052.412.36.412h.104v.103H11.95h.052c.257 0 .309-.154.309-.463V.567c0-.206-.155-.31-.36-.31h-.052V.156h.721l1.7 1.802z" transform="translate(-1246 -55) translate(1246 55) translate(0 19.316)"/>
                    <path d="M14.371 2.73h.103V.721c0-.463.206-.463.36-.463h.052V.155h-.927v.103h.051c.103 0 .361.051.361.36v1.39L12.723.156h-.721v.103h.051c.155 0 .36.154.36.36v1.545c0 .31-.102.464-.36.464h-.051v.103h.927v-.103h-.052c-.309 0-.36-.103-.36-.464V.618L14.37 2.73zm.155.051h-.155L12.517.721v1.494c0 .309.051.412.309.412h.103v.103H11.95v-.155h.052c.257 0 .309-.154.309-.463V.567c0-.206-.155-.31-.31-.31H11.9V.156h.772l1.597 1.802V.618c0-.309-.206-.309-.309-.309h-.103V.206H14.835v.103h-.052c-.154 0-.309 0-.309.464V2.42c.052.103.052.206.052.36zM16.02.567l-.361 1.03h.67l-.31-1.03zm-.516 1.596c-.051.103-.103.206-.103.31 0 .102.155.102.258.102h.051v.103h-.875v-.103c.154 0 .257-.103.309-.257l.566-1.7.155-.463c.103-.052.257-.103.36-.155h.052c0 .052 0 .052.051.103l.721 1.957c.052.103.104.258.155.36.052.104.103.155.258.155v.103H16.38v-.103h.051c.103 0 .206 0 .206-.103 0-.051-.051-.154-.051-.257l-.155-.412h-.824l-.103.36z" transform="translate(-1246 -55) translate(1246 55) translate(0 19.316)"/>
                    <path d="M15.71 1.597h.67l-.36-1.03-.31 1.03zm-.051 0l.36-1.082.36 1.082h-.72zm.72 1.081H17.41v-.103c-.103 0-.206-.051-.257-.154-.052-.052-.104-.206-.104-.36L16.38.154c0-.052 0-.052-.05-.103-.052.051-.207.103-.31.154 0 .155-.103.31-.154.464l-.567 1.7c-.051.154-.206.257-.36.257v.103h.772v-.103c-.103 0-.309 0-.309-.155 0-.051.052-.154.103-.309l.103-.412h.876l.154.412c.052.103.052.206.052.258 0 .103-.155.103-.258.103v.154h-.051zm1.083.052H16.38v-.155h.051c.103 0 .206 0 .206-.103 0-.051-.051-.154-.051-.257l-.155-.412h-.824l-.103.36c-.051.103-.103.206-.103.258 0 .103.155.103.258.103h.051v.103h-.875v-.052c.154 0 .257-.103.309-.206l.566-1.7.155-.463c.103-.051.257-.103.309-.154h.103c0 .051 0 .051.051.103l.721 1.905c.052.155.104.258.155.36.052.104.103.155.206.155h.052v.155zM17.616.31c-.257 0-.309.05-.36.308h-.103c0-.103.051-.206.051-.309V0h.103c.052.103.103.103.206.103h1.906c.103 0 .206 0 .206-.103h.103c0 .103-.052.206-.052.31v.308l-.103.052c0-.155-.051-.36-.257-.36h-.618v1.956c0 .258.103.31.309.31h.051v.102h-1.236v-.103h.052c.206 0 .309 0 .309-.309V.31h-.567z" transform="translate(-1246 -55) translate(1246 55) translate(0 19.316)"/>
                    <path d="M19.058 2.73h-1.236v-.155h.052c.206 0 .257 0 .309-.309V.31h-.567.618v1.957c0 .31-.103.31-.309.31h-.051v.102h.618c.154 0 .412 0 .566.052v-.103h-.051c-.155 0-.31-.052-.31-.31V.362h.619c.257 0 .257.206.309.36l.103-.051V.36c0-.102 0-.205.051-.257h-.051c0 .103-.103.103-.206.103h-1.906c-.103 0-.154 0-.206-.103h-.051v.31c0 .102-.052.205-.052.308h.103c.052-.257.103-.36.36-.309-.257 0-.257.052-.308.31h-.155c0-.104.052-.207.052-.31V.103h.103c0 .103.103.103.206.103h1.905c.103 0 .155 0 .206-.103h.103c0 .103-.051.206-.051.31V.72l-.155.052c0-.155 0-.36-.257-.36h-.567v1.956c0 .258.103.31.31.31h.102l-.206.051z" transform="translate(-1246 -55) translate(1246 55) translate(0 19.316)"/>
                    <path d="M19.831 2.575c.206 0 .309 0 .309-.206V.464c0-.206-.154-.206-.258-.206h-.051V.155h1.133v.103h-.051c-.155 0-.258 0-.258.206v1.905c0 .206.155.206.258.206h.051v.103H19.882v-.103h-.051z" transform="translate(-1246 -55) translate(1246 55) translate(0 19.316)"/>
                    <path d="M20.964 2.678v-.103h-.051c-.155 0-.31 0-.31-.206V.464c0-.206.155-.206.31-.206h.051V.155H19.882v.103h.052c.155 0 .31 0 .31.206v1.905c0 .206-.155.206-.31.206h-.052v.103H20.964m0 .052H19.882v-.155h.052c.155 0 .258 0 .258-.206V.464c0-.155-.103-.206-.258-.206h-.052V.155h1.134v.103h-.052c-.154 0-.257 0-.257.206v1.905c0 .155.103.206.257.206h.052l-.052.155zM22.51 2.575c.72 0 .824-.618.824-1.184 0-.515-.31-1.185-.876-1.185-.67 0-.824.567-.824 1.082-.052.67.257 1.287.875 1.287M22.458.103c.773 0 1.39.464 1.39 1.288 0 .824-.617 1.39-1.39 1.39-.773 0-1.39-.515-1.39-1.339 0-.772.617-1.339 1.39-1.339" transform="translate(-1246 -55) translate(1246 55) translate(0 19.316)"/>
                    <path d="M21.582 1.288c0-.515.206-1.082.876-1.082.618 0 .927.67.927 1.185s-.103 1.184-.876 1.184c.722 0 .825-.618.825-1.133s-.31-1.184-.876-1.184c-.67 0-.824.566-.876 1.03.052.67.31 1.287.927 1.287-.618.052-.927-.618-.927-1.287m-.515.154c0-.772.618-1.39 1.39-1.39-.772.051-1.338.618-1.39 1.39.052.773.618 1.288 1.39 1.288.774 0 1.392-.567 1.392-1.39 0-.773-.618-1.237-1.391-1.237.773 0 1.442.515 1.442 1.288 0 .875-.618 1.442-1.39 1.442-.825-.052-1.443-.567-1.443-1.39M26.321 1.957V.567c0-.31-.206-.361-.309-.361h-.103V.103H26.888v.103h-.052c-.154 0-.309.052-.309.464v2.008h-.154L24.467.567V2.06c0 .31.051.412.36.412h.052v.103H23.9h.052c.257 0 .309-.154.309-.463V.567c0-.206-.155-.31-.31-.31h-.05V.156h.721l1.7 1.802z" transform="translate(-1246 -55) translate(1246 55) translate(0 19.316)"/>
                    <path d="M26.373 2.73h.103V.721c0-.463.206-.463.36-.463h.052V.155h-.927v.103h.051c.103 0 .36.051.36.36v1.39L24.725.156h-.721v.103h.052c.154 0 .36.154.36.36v1.545c0 .31-.103.464-.36.464h-.052v.103h.927v-.103h-.051c-.31 0-.36-.103-.36-.464V.618l1.854 2.112zm.154.051h-.154L24.518.721v1.494c0 .309.052.412.31.412h.102v.103h-.978v-.155h.051c.258 0 .31-.154.31-.463V.567c0-.206-.155-.31-.31-.31h-.051V.156h.772l1.597 1.802V.618c0-.309-.206-.309-.309-.309h-.103V.206H26.888v.103h-.052c-.154 0-.309 0-.309.464V2.78zM28.02.567l-.36 1.03h.721l-.36-1.03zm-.514 1.596c-.052.103-.103.206-.103.31 0 .102.154.102.257.102h.052v.103h-.876v-.103c.155 0 .258-.103.31-.257l.566-1.7.154-.463c.103-.052.258-.103.361-.155h.051c0 .052 0 .052.052.103L29 2.009c.051.103.103.257.154.36.052.206.155.206.258.206v.103H28.33v-.103h.051c.104 0 .207 0 .207-.103 0-.051-.052-.154-.052-.257l-.155-.412h-.824l-.051.36z" transform="translate(-1246 -55) translate(1246 55) translate(0 19.316)"/>
                    <path d="M27.712 1.597h.618l-.31-.979-.308.979zm-.052 0l.36-1.082.361 1.082h-.72zm.721 1.081H29.412v-.103c-.103 0-.206-.051-.258-.154-.051-.103-.103-.258-.154-.36L28.33.154c0-.052 0-.052-.052-.103-.051.051-.206.103-.309.154 0 .155-.103.31-.154.464l-.567 1.7c-.051.154-.206.257-.309.257v.103H27.712v-.103c-.103 0-.31 0-.31-.155 0-.051.052-.154.104-.309l.103-.412h.876l.154.412c.052.103.052.206.052.258 0 .103-.155.103-.258.103v.154h-.052zm1.082.052H28.381v-.155h.052c.103 0 .206 0 .206-.103 0-.051-.051-.154-.051-.257l-.155-.412h-.824l-.103.36c-.052.103-.103.206-.103.258 0 .103.154.103.257.103h.052v.103h-.876v-.052c.155 0 .258-.103.31-.206l.566-1.7.154-.463c.103-.051.258-.103.361-.154h.103c0 .051 0 .051.051.103l.67 1.905c.052.155.103.258.155.36.051.104.103.155.206.155h.051v.155zM30.39 2.37c0 .154.103.205.206.205h.464c.154 0 .309-.103.36-.206.052-.103.104-.206.104-.257h.103l-.155.618H29.515v-.155h.051c.155 0 .258 0 .258-.257V.412c0-.206-.155-.206-.258-.206h-.051V.103h1.133v.103h-.103c-.155 0-.258 0-.258.206V2.37h.103z" transform="translate(-1246 -55) translate(1246 55) translate(0 19.316)"/>
                    <path d="M31.472 2.678c.052-.206.103-.412.155-.566h-.052c0 .103-.051.154-.103.257-.051.103-.206.206-.36.206H30.647c-.103 0-.258-.051-.258-.206V.464c0-.206.103-.206.258-.206h.051V.155h-1.133v.103h.052c.154 0 .309 0 .309.206v1.905c0 .258-.155.258-.31.258h-.05v.103h.978c.309-.052.618-.052.927-.052m.052.052h-1.958v-.155h.052c.154 0 .257 0 .257-.206V.464c0-.155-.103-.206-.257-.206h-.052V.155H30.7v.103h-.103c-.154 0-.257 0-.257.206v1.905c0 .155.103.155.206.206H31.008c.155 0 .258-.103.361-.206.052-.103.103-.154.103-.257h.103c.052.206 0 .412-.051.618zM31.524.412c.103 0 .103-.051.103-.103 0-.051-.052-.103-.052-.103h-.051v.206zm-.103.206c.051 0 .051 0 .051-.051v-.31c0-.051 0-.051-.051-.051h.206c.051 0 .154.052.154.103 0 .052-.051.103-.103.103l.052.103c.051.052.051.103.103.103h-.052c-.051 0-.051-.051-.154-.154h-.052v.103c0 .051 0 0 .052.051h-.206zm.154.103c.155 0 .31-.154.31-.309 0-.154-.155-.309-.31-.309-.154 0-.309.155-.309.31.052.154.155.308.31.308m0-.67c.205 0 .411.155.411.413 0 .257-.154.36-.412.36-.257 0-.412-.154-.412-.36s.206-.412.412-.412" transform="translate(-1246 -55) translate(1246 55) translate(0 19.316)"/>
                </g>
                <path fill="#004A97" d="M22.87 5.46c0-1.648-.67-3.142-1.803-4.327C19.986.463 18.697.052 17.36.052H14.37c-3.554 0-6.439 2.626-6.439 6.438 0 1.597.619 3.04 1.597 4.172 1.03.722 2.267 1.237 3.606 1.443-2.627-.567-4.584-2.885-4.584-5.718 0-3.245 2.626-5.872 5.82-5.872 3.245 0 5.872 2.627 5.872 5.872 0 3.194-2.524 5.77-5.717 5.82h.257c4.43.052 8.087-2.987 8.087-6.747z" transform="translate(-1246 -55) translate(1246 55)"/>
                <path fill="#006AC9" d="M14.32.052c-3.555 0-6.44 2.626-6.44 6.438 0 1.545.567 2.988 1.546 4.07.052.05.103.102.155.154 1.03.721 2.215 1.185 3.554 1.442C10.508 11.59 8.55 9.272 8.55 6.44c0-3.245 2.626-5.872 5.82-5.872 3.245 0 5.872 2.627 5.872 5.872 0 3.193-2.524 5.769-5.717 5.82h.257c.258 0 .515 0 .773-.051 3.4-.824 5.563-4.276 4.945-7.933-.31-1.7-1.134-3.142-2.318-4.172-.258-.051-.515-.051-.773-.051h-3.09z" transform="translate(-1246 -55) translate(1246 55)"/>
            </g>
        </g>
    </g>
</svg>
