<svg xmlns="http://www.w3.org/2000/svg" width="32" height="12" viewBox="0 0 32 12">
    <g fill="none" fill-rule="evenodd">
        <g fill-rule="nonzero">
            <g transform="translate(-1135 -61) translate(1135 61)">
                <circle cx="16.981" cy="2.748" r="2.684" fill="#EF9122"/>
                <path fill="#F26E21" d="M14.297 2.748c0-1.496 1.187-2.683 2.684-2.683 1.496 0 2.684 1.187 2.684 2.683 0 1.497-1.188 2.684-2.684 2.684"/>
                <path fill="#F44500" d="M15.123.839c1.032-1.033 2.735-1.033 3.767 0 1.033 1.032 1.033 2.735 0 3.767"/>
                <path fill="#595A5B" d="M1.445.22H0v5.057h1.445c.774 0 1.342-.206 1.807-.567.567-.465.929-1.187.929-1.962C4.18 1.252 3.097.22 1.445.22zm1.187 3.819c-.31.258-.722.413-1.342.413H.98V1.097h.259c.62 0 1.032.103 1.342.413.36.31.567.774.567 1.238.052.465-.154.981-.516 1.29zM4.645.219H5.645V5.277H4.645zM8.103 2.18c-.62-.206-.774-.36-.774-.619 0-.31.31-.567.723-.567.31 0 .567.103.825.412l.517-.67C8.98.373 8.464.167 7.897.167c-.878 0-1.6.62-1.6 1.445 0 .722.31 1.032 1.238 1.393.413.155.568.207.671.31.207.103.31.31.31.516 0 .413-.31.723-.774.723-.465 0-.877-.258-1.084-.671l-.62.62c.465.67 1.033.98 1.756.98 1.032 0 1.754-.671 1.754-1.652 0-.877-.31-1.238-1.445-1.651z"/>
                <path fill="#3B3D3F" d="M9.858 2.748c0 1.497 1.187 2.633 2.684 2.633.413 0 .774-.104 1.239-.31V3.884c-.413.413-.775.568-1.187.568-.981 0-1.704-.723-1.704-1.755 0-.98.723-1.755 1.652-1.755.464 0 .826.155 1.239.568V.323c-.413-.207-.775-.31-1.24-.31-1.444.103-2.683 1.29-2.683 2.735z"/>
                <path fill="#000" d="M21.884 3.626L20.542.219 19.458.219 21.574 5.432 22.142 5.432 24.361.219 23.277.219zM24.774 5.277L27.613 5.277 27.613 4.452 25.806 4.452 25.806 3.058 27.561 3.058 27.561 2.181 25.806 2.181 25.806 1.097 27.613 1.097 27.613.219 24.774.219z"/>
                <g fill="#595A5B">
                    <path d="M30.4 2.968c.774-.155 1.187-.671 1.187-1.445 0-.93-.67-1.497-1.806-1.497h-1.497v5.058h.98V3.07h.155l1.394 2.013H32l-1.6-2.116zm-.826-.62h-.31V.8h.31c.62 0 .98.258.98.774s-.36.774-.98.774zM1.445.026H0v5.058h1.445c.774 0 1.342-.207 1.807-.568.567-.464.929-1.187.929-1.961 0-1.497-1.084-2.53-2.736-2.53zm1.187 3.82c-.31.257-.722.412-1.342.412H.98V.903h.259c.62 0 1.032.103 1.342.413.36.31.567.774.567 1.239.052.464-.154.98-.516 1.29z" transform="translate(0 .194)"/>
                </g>
                <path fill="#595A5B" d="M4.645 0.219H5.645V5.277H4.645z"/>
                <g fill="#595A5B">
                    <path d="M2.103 2.052c-.62-.207-.774-.362-.774-.62 0-.31.31-.567.723-.567.31 0 .567.103.825.412l.517-.67C2.98.244 2.464.038 1.897.038c-.878 0-1.6.62-1.6 1.445 0 .722.31 1.032 1.238 1.393.413.155.568.207.671.31.207.103.31.31.31.516 0 .413-.31.723-.774.723-.465 0-.877-.258-1.084-.671l-.62.62c.465.67 1.033.98 1.756.98 1.032 0 1.754-.671 1.754-1.652 0-.877-.31-1.238-1.445-1.651zM6.594 5.252c.412 0 .774-.104 1.238-.31V3.755c-.413.413-.774.568-1.187.568-.98 0-1.703-.723-1.703-1.755 0-.516.206-.93.516-1.29l-.67-.672c-.517.465-.878 1.188-.878 1.962-.052 1.548 1.135 2.684 2.684 2.684z" transform="translate(6 .129)"/>
                </g>
                <path fill="#000" d="M30.4 3.161c.774-.155 1.187-.67 1.187-1.445 0-.929-.67-1.497-1.806-1.497h-1.497v5.058h.98V3.265h.155l1.394 2.012H32l-1.6-2.116zm-.826-.62h-.31V.995h.31c.62 0 .98.258.98.774s-.36.774-.98.774z"/>
                <g fill="#F26E21">
                    <path d="M.052 2.877L.052.039 2.013 2.052 2.013.194 2.426.194 2.426 3.032.465 1.019.465 2.877zM4.49.606L3.406.606 3.406 1.226 4.439 1.226 4.439 1.639 3.406 1.639 3.406 2.516 4.49 2.516 4.49 2.877 2.994 2.877 2.994.194 4.49.194zM5.781.606L5.781 2.877 5.368 2.877 5.368.606 4.748.606 4.748.245 6.4.245 6.4.606zM7.019.245L7.69 2.052 8.413.142 9.084 2.052 9.806.245 10.323.245 9.135 3.084 8.465 1.174 7.742 3.084 6.606.245zM10.374 1.535c0-.36.155-.722.413-.98s.62-.413.98-.413c.362 0 .723.155.981.413s.413.62.413.98c0 .362-.155.723-.413.981s-.619.413-.98.413c-.362 0-.671-.103-.93-.361-.309-.258-.464-.568-.464-1.033zm.413 0c0 .31.103.517.31.723.206.207.413.31.67.31.259 0 .517-.103.723-.31.207-.206.31-.413.31-.723s-.103-.516-.31-.722c-.206-.207-.413-.31-.722-.31-.258 0-.516.103-.723.31-.155.206-.258.464-.258.722zM14.606 1.742l.826 1.135h-.516l-.774-1.083h-.052v1.083h-.413V.194h.465c.361 0 .62.051.774.206.155.155.258.361.258.568 0 .206-.051.361-.155.464-.103.207-.258.31-.413.31zm-.516-.31h.104c.36 0 .567-.155.567-.413s-.206-.413-.567-.413h-.155v.826h.051zM16.206 1.277L17.239.194 17.755.194 16.568 1.381 17.755 2.826 17.239 2.826 16.258 1.639 16.155 1.742 16.155 2.826 15.742 2.826 15.742.142 16.155.142 16.155 1.277z" transform="translate(7.226 7.097)"/>
                </g>
                <g fill="#3B3D3F">
                    <path d="M7.316 4.258L6.387 4.258 6.387 3.329 5.355 2.297 5.355 5.084 8.142 5.084zM3.6.542L2.465 3.432 1.123.026.039.026 2.155 5.239 2.723 5.239 4.374 1.316z" transform="translate(19.42 .194)"/>
                </g>
            </g>
        </g>
    </g>
</svg>
