<svg fill="none" height="24" viewBox="0 0 24 24" width="24" xmlns="http://www.w3.org/2000/svg" xmlns:xlink="http://www.w3.org/1999/xlink"><filter id="a" color-interpolation-filters="sRGB" filterUnits="userSpaceOnUse" height="24" width="23.4902" x=".253906" y="0"><feFlood flood-opacity="0" result="BackgroundImageFix"/><feColorMatrix in="SourceAlpha" result="hardAlpha" type="matrix" values="0 0 0 0 0 0 0 0 0 0 0 0 0 0 0 0 0 0 127 0"/><feOffset/><feGaussianBlur stdDeviation="1"/><feComposite in2="hardAlpha" operator="out"/><feColorMatrix type="matrix" values="0 0 0 0 1 0 0 0 0 1 0 0 0 0 1 0 0 0 0.6 0"/><feBlend in2="BackgroundImageFix" mode="normal" result="effect1_dropShadow_3689_30798"/><feBlend in="SourceGraphic" in2="effect1_dropShadow_3689_30798" mode="normal" result="shape"/></filter><g filter="url(#a)"><path d="m13.8744 22h-3.75c-.25004 0-.46671-.0833-.65004-.25s-.29167-.375-.325-.625l-.3-2.325c-.21667-.0833-.42083-.1833-.6125-.3s-.37917-.2417-.5625-.375l-2.175.9c-.23333.0833-.46667.0917-.7.025s-.41667-.2083-.55-.425l-1.85-3.225c-.13333-.2167-.175-.45-.125-.7s.175-.45.375-.6l1.875-1.425c-.01667-.1167-.025-.2292-.025-.3375v-.675c0-.1083.00833-.2208.025-.3375l-1.875-1.425c-.2-.15-.325-.35-.375-.6s-.00833-.48333.125-.7l1.85-3.225c.11667-.23333.29583-.37917.5375-.4375s.47917-.04583.7125.0375l2.175.9c.18333-.13333.375-.25833.575-.375s.4-.21667.6-.3l.3-2.325c.03333-.25.14167-.45833.325-.625s.4-.25.65004-.25h3.75c.25 0 .4666.08333.65.25.1833.16667.2916.375.325.625l.3 2.325c.2166.08333.4208.18333.6125.3.1916.11667.3791.24167.5625.375l2.175-.9c.2333-.08333.4666-.09167.7-.025.2333.06667.4166.20833.55.425l1.85 3.225c.1333.21667.175.45.125.7s-.175.45-.375.6l-1.875 1.425c.0166.1167.025.2292.025.3375v.675c0 .1083-.0167.2208-.05.3375l1.875 1.425c.2.15.325.35.375.6s.0083.4833-.125.7l-1.85 3.2c-.1334.2167-.3209.3625-.5625.4375-.2417.075-.4792.0708-.7125-.0125l-2.125-.9c-.1834.1333-.375.2583-.575.375s-.4.2167-.6.3l-.3 2.325c-.0334.25-.1417.4583-.325.625-.1834.1667-.4.25-.65.25zm-1.825-6.5c.9666 0 1.7916-.3417 2.475-1.025.6833-.6833 1.025-1.5083 1.025-2.475s-.3417-1.7917-1.025-2.475c-.6834-.68333-1.5084-1.025-2.475-1.025-.9834 0-1.8125.34167-2.48754 1.025-.675.6833-1.0125 1.5083-1.0125 2.475s.3375 1.7917 1.0125 2.475c.67504.6833 1.50414 1.025 2.48754 1.025zm0-2c-.4167 0-.7709-.1458-1.0625-.4375-.2917-.2917-.4375-.6458-.4375-1.0625s.1458-.7708.4375-1.0625c.2916-.2917.6458-.4375 1.0625-.4375.4166 0 .7708.1458 1.0625.4375.2916.2917.4375.6458.4375 1.0625s-.1459.7708-.4375 1.0625c-.2917.2917-.6459.4375-1.0625.4375zm-1.05 6.5h1.975l.35-2.65c.5166-.1333.9958-.3292 1.4375-.5875.4416-.2583.8458-.5708 1.2125-.9375l2.475 1.025.975-1.7-2.15-1.625c.0833-.2333.1416-.4792.175-.7375.0333-.2583.05-.5208.05-.7875s-.0167-.5292-.05-.7875c-.0334-.2583-.0917-.5042-.175-.7375l2.15-1.625-.975-1.7-2.475 1.05c-.3667-.38333-.7709-.70417-1.2125-.9625-.4417-.25833-.9209-.45417-1.4375-.5875l-.325-2.65h-1.975l-.35 2.65c-.5167.13333-.99587.32917-1.43754.5875s-.84583.57083-1.2125.9375l-2.475-1.025-.975 1.7 2.15 1.6c-.08333.25-.14167.5-.175.75s-.05.5167-.05.8c0 .2667.01667.525.05.775s.09167.5.175.75l-2.15 1.625.975 1.7 2.475-1.05c.36667.3833.77083.7042 1.2125.9625s.92084.4542 1.43754.5875z" fill="#fff"/></g></svg>