<svg fill="none" height="48" viewBox="0 0 49 48" width="49" xmlns="http://www.w3.org/2000/svg" xmlns:xlink="http://www.w3.org/1999/xlink"><clipPath id="a"><path d="m.5 0h48v48h-48z"/></clipPath><g clip-path="url(#a)" fill="#001848"><path d="m36.79 11.4722v-3.94445h.9403c1.5037 0 2.7271-1.22334 2.7271-2.72709v-2.07357c-.0001-1.50375-1.2234-2.72709-2.7271-2.72709h-26.4601c-1.5037 0-2.72704 1.22334-2.72704 2.72709v2.07366c0 1.50366 1.22334 2.72709 2.72704 2.72709h.9404v3.92336c-.0001.0071-.0012.014-.0012.0211 0 3.4005 1.3579 6.5636 3.8176 8.9008.1329.1282.2711.2541.4222.3846.1507.1303.292.2474.4264.3533.0678.0542.1368.1083.207.1605.0676.052.1362.1028.2058.1525.0717.0529.1443.1047.2115.1505.0703.0489.1421.0979.2136.1455.0031.0022.0062.0041.0093.0062l.042.0274c.0525.0342.1056.0688.164.1061.0006.0004.0009.0006.0015.0009.0007.0006.0015.001.0025.0015.0004.0002.0007.0005.0012.0008.0029.0018.006.0034.0089.0053 1.0114.6429 2.1016 1.1259 3.2494 1.4467v1.3782c-5.255 1.4646-8.9826 6.3037-8.9826 11.8362 0 .0025.0003.0049.0003.0074v3.9364h-.9399c-1.50369 0-2.72713 1.2233-2.72713 2.7271v2.073c0 1.5036 1.22334 2.7271 2.72713 2.7271h26.46c1.5036 0 2.7271-1.2234 2.7271-2.7271v-2.073c0-1.5037-1.2234-2.7271-2.7271-2.7271h-.94v-3.9364c0-.0025.0003-.0049.0003-.0074 0-5.5326-3.7279-10.3718-8.9829-11.8363v-1.3856c5.2548-1.4647 8.9825-6.3034 8.9825-11.8352zm-25.5198-6.12611c-.3007 0-.5454-.24468-.5454-.54543v-2.07357c0-.30075.2447-.54543.5454-.54543h26.4601c.3008 0 .5455.24468.5455.54543v2.07366c0 .30075-.2447.54544-.5455.54544h-2.0311-22.3978zm3.1211 6.14301c.0001-.0057.0008-.0113.0008-.0169v-3.94445h20.2163v3.94445c0 .288-.013.5735-.0372.8563h-20.1442c-.0231-.2775-.0353-.5574-.0357-.8394zm21.3074 31.1657c.0011 0 .002-.0002.0032-.0002h2.0282c.3006 0 .5454.2447.5454.5454v2.073c0 .3007-.2447.5454-.5454.5454h-26.4599c-.3008 0-.5455-.2447-.5455-.5454v-2.073c0-.3007.2447-.5454.5455-.5454h2.0308 22.394c.0012 0 .0024.0002.0037.0002zm-17.8943-2.1819 5.9969-3.0857c.4376-.225.9599-.225 1.3974 0l5.9968 3.0857zm16.8042-3.9491c0 .0017-.0002.0033-.0002.005v3.2468l-8.4115-4.3282c-1.0624-.5468-2.3312-.5468-3.3938 0l-8.4113 4.3282v-3.2468c0-.0017-.0002-.0032-.0002-.005.0026-4.7971 3.4101-8.9616 8.1047-9.9038.1095-.0217.213-.0595.3082-.1112.0229-.0125.0447-.0266.0666-.0404.0075-.0047.0154-.0089.0227-.0139.025-.0169.0489-.0353.0722-.054.0039-.0031.0079-.0057.0118-.0088.0219-.0181.0425-.0375.0629-.0572.0047-.0047.0101-.0089.0149-.0138.0175-.0175.0337-.0363.0499-.0549.0069-.0079.0143-.0152.0208-.0234.0134-.0162.0254-.0335.0378-.0504.0085-.0115.0174-.0225.0253-.0344.0102-.0152.0192-.0313.0285-.0469.0088-.0144.018-.0285.026-.0433.0092-.0169.0168-.0346.0249-.052.0068-.0142.0142-.0281.0203-.0426.0122-.0291.0228-.0588.0325-.089.001-.0032.0025-.0062.0034-.0094.0328-.1052.0496-.2161.0489-.33v-1.8247c.3794.0351.7615.0535 1.1443.0535.37 0 .7398-.0174 1.1075-.0504v1.8271.0005c0 .0746.0074.148.0221.2192.0008.0036.002.0069.0028.0105.0066.0309.0142.0615.0235.0916.0091.0294.0199.058.0312.0861.0016.0041.0028.0084.0046.0125.0118.0281.0251.0554.0391.0822.0022.0042.0039.0086.0062.0127.0125.0233.0264.0455.0405.0676.0048.0075.0089.0155.014.023.0117.0174.0247.0339.0374.0507.0086.0114.0166.0233.0257.0345.0099.0119.0207.0229.0309.0344.0133.0149.0261.0301.0402.0443.0072.0072.0152.0137.0225.0207.0181.0172.0362.0345.0555.0505.0051.0041.0106.0078.0156.0118.0222.0178.0448.0353.0685.0513.0059.0039.0122.0072.0181.0112.0233.0151.0469.03.0715.0434.0943.0513.1973.0889.3059.1107.0001 0 .0003.0001.0005.0001 4.6957.942 8.1041 5.1067 8.1066 9.9044zm-8.1053-15.1435c-.056.0112-.1101.0274-.1627.0468-1.2241.2228-2.5117.2169-3.725-.0153-.0057-.0018-.0114-.0038-.0171-.0054-.0331-.0099-.0666-.0187-.1009-.0256-1.2059-.2419-2.3484-.6996-3.3957-1.3606-.0487-.0312-.0975-.0629-.1457-.0945l-.0381-.0248c-.0579-.0387-.116-.0783-.1799-.1227-.054-.037-.1072-.0747-.1593-.1134-.0054-.0041-.0111-.0081-.0166-.0121-.0528-.0376-.1047-.076-.1557-.1155-.0066-.005-.0131-.0099-.0196-.0147-.0507-.0374-.1003-.0767-.155-.1202-.1138-.0896-.23-.1861-.356-.295-.1212-.1046-.2306-.2042-.3403-.3101-1.2676-1.2045-2.1792-2.6726-2.6846-4.2869h19.2879c-1.0873 3.4327-3.9688 6.134-7.6357 6.87z"/><path d="m24.5 28.9961c-.6025 0-1.0908.4884-1.0908 1.0908v1.3744c0 .6024.4883 1.0908 1.0908 1.0908.6024 0 1.0907-.4884 1.0907-1.0908v-1.3744c0-.6024-.4883-1.0908-1.0907-1.0908z"/></g></svg>