<svg fill="none" height="56" viewBox="0 0 57 56" width="57" xmlns="http://www.w3.org/2000/svg" xmlns:xlink="http://www.w3.org/1999/xlink"><clipPath id="a"><path d="m.5 0h56v56h-56z"/></clipPath><g clip-path="url(#a)" fill="#3a5ba9"><path d="m47.3835 20.8944c1.7671 0 3.2047-1.4372 3.2047-3.2043s-1.4376-3.2048-3.2047-3.2048h-4.7095c.0752-1.5556-.4666-3.0484-1.4437-4.1878.144-.0663.2867-.1368.4255-.2171 1.1639-.67203 1.9966-1.75681 2.3443-3.05478l.1855-.6917c.3477-1.29797.1691-2.65405-.5029-3.81786-.6721-1.16382-1.7568-1.996515-3.0548-2.344292h-.0004c-2.6789-.717344-5.4436.877992-6.1618 3.558092l-.1854.69128c-.3478 1.29797-.1692 2.65405.5029 3.81786.0478.08289.0983.16363.1504.2431-.4508.14056-.8891.33496-1.3057.5849-.555.33239-1.042.74469-1.4526 1.2185l-3.7234 2.4387c-1.0908.7144-1.492 2.0948-.9537 3.2821l1.7441 3.8495-.9566 4.1032c-.0005.0017 0 .0026-.0005.0043-.0179.0786-.0282.1602-.0282.2444v9.625c0 .2563.0889.4917.2363.678v4.1964h-6.6202c-.1854-.1444-.4182-.2312-.6716-.2312h-2.8185c-1.9235 0-3.4885 1.565-3.4885 3.4885v6.7996c0 .6037.4897 1.0937 1.0938 1.0937h.9335c2.581 0 4.7424-1.8298 5.2568-4.26h9.9787c2.3033 0 4.2597-1.5065 4.939-3.5859l.2384.3363v6.5864c-.1897.1965-.3068.4635-.3068.7583v2.8186c0 1.9234 1.565 3.4884 3.4885 3.4884h6.7996c.6037 0 1.0937-.4896 1.0937-1.0937v-.9336c0-2.4028-1.5855-4.442-3.7653-5.1273v-8.873c0-1.1169-.1756-2.2213-.5225-3.2826l-1.3514-4.1336-1.9636-8.3671.6567-3.2945zm-10.99-15.90716.185-.69128c.3401-1.26934 1.4923-2.10803 2.7476-2.10803.2431 0 .49.03119.7353.09699.734.19696 1.3471.66736 1.7269 1.32531.3798.65753.4806 1.42401.2841 2.15759l-.1854.69171c-.1965.73357-.6669 1.3471-1.3249 1.72649-.6276.36273-1.3535.4704-2.0559.3089-.0846-.02692-.17-.0517-.2568-.07477-.0115-.00342-.0235-.00555-.035-.00854-.6494-.2226-1.1903-.66608-1.5368-1.26636-.3798-.65753-.4807-1.424-.2841-2.15801zm1.201 5.52426c.0803.0256.1615.0496.2435.0718.0175.0047.0354.0077.053.0124 1.8017.5947 2.9044 2.4583 2.5288 4.3438l-.0841.4289c-.0633.3209.0205.6533.2285.9058.2077.2525.5174.3986.8447.3986h5.975c.5606 0 1.0169.4563 1.0169 1.0173 0 .5605-.4563 1.0168-1.0169 1.0168h-6.7974c-.0141 0-.0287 0-.0428 0h-1.271c-1.3834 0-2.6199-.9271-3.007-2.255-.1692-.5798-.7767-.9139-1.356-.7438-.5802.1692-.9131.7763-.7439 1.3561.6537 2.2426 2.734 3.8127 5.0671 3.8302l-.4422 2.2195h-8.0621l2.2807-9.7796c.1311-.5627.3819-1.0749.7318-1.5111.0103-.012.0205-.0244.0304-.0368.2721-.3307.602-.6161.9809-.8434.8626-.5169 1.8684-.6682 2.8421-.4315zm4.448 26.8579c.2751.8412.4144 1.7171.4144 2.6023v8.627h-2.9347v-6.5988c0-.2265-.0705-.4474-.2012-.6324l-1.9684-2.7783v-3.8418l3.6201-.6511zm-11.5984-4.6305v-7.4375h6.0963l-1.2116 7.4375zm8.377-7.4375 1.5671 6.6774-2.801.5038 1.1694-7.1812zm-9.3306-10.1979c-.0902-.1986-.0231-.4298.1593-.5494l.978-.6404-.5695 2.4429zm-12.4085 32.5625v-5.7016c0-.7178.5836-1.3014 1.301-1.3014h1.7248v3.8209c0 1.703-1.3433 3.0983-3.0258 3.1821zm15.0753-4.2558h-9.862v-2.5156h7.2917c.6042 0 1.0938-.4896 1.0938-1.0938v-4.8744h4.4843v5.476c0 1.6586-1.3492 3.0078-3.0078 3.0078zm14.0611 10.4021h-5.702c-.7174 0-1.301-.5836-1.301-1.3009v-1.7253h3.8204c1.703 0 3.0984 1.3437 3.1826 3.0262z"/><path d="m32.9846 53.8125h-13.383c-.6037 0-1.0938.49-1.0938 1.0937 0 .6042.4901 1.0938 1.0938 1.0938h13.383c.6037 0 1.0937-.4896 1.0937-1.0938 0-.6037-.4896-1.0937-1.0937-1.0937z"/><path d="m15.8193 53.8125c-.2875 0-.5699.1171-.7733.3204-.2033.2034-.3204.4858-.3204.7733 0 .2876.1171.57.3204.7734.2034.2033.4858.3204.7733.3204.2876 0 .57-.1171.7733-.3204.2034-.2034.3205-.4858.3205-.7734 0-.2875-.1171-.5699-.3205-.7733-.2038-.2033-.4857-.3204-.7733-.3204z"/><path d="m11.5112 25.3017c.2876 0 .5687-.117.7733-.3204.2034-.2034.3205-.4858.3205-.7733s-.1171-.5699-.3205-.7733c-.2033-.2034-.4857-.3204-.7733-.3204-.2875 0-.5699.117-.7733.3204-.2046.2034-.3204.4858-.3204.7733s.1158.5699.3204.7733c.2034.2034.4858.3204.7733.3204z"/><path d="m22.295 30.333c0-.6041-.4896-1.0937-1.0937-1.0937h-13.7013c-.6037 0-1.09375.4896-1.09375 1.0937s.49005 1.0937 1.09375 1.0937h13.7013c.6041 0 1.0937-.4896 1.0937-1.0937z"/><path d="m15.8857 25.3017h7.3649c.6037 0 1.0937-.49 1.0937-1.0937 0-.6041-.49-1.0937-1.0937-1.0937h-7.3649c-.6037 0-1.0937.4896-1.0937 1.0937 0 .6037.49 1.0937 1.0937 1.0937z"/></g></svg>