<svg xmlns="http://www.w3.org/2000/svg" width="34" height="21" viewBox="0 0 34 21">
    <g fill="none" fill-rule="evenodd">
        <g fill-rule="nonzero">
            <g>
                <g>
                    <g>
                        <path fill="#FF5F00" d="M19.986 2.079L11.48 2.079 11.48 17.365 19.986 17.365 19.986 2.079" transform="translate(-66 -56) translate(66 56) matrix(1 0 0 -1 .135 20.443) translate(.243)"/>
                        <path fill="#EB001B" d="M12.02 9.722c0 3.1 1.452 5.862 3.713 7.643-1.653 1.301-3.74 2.078-6.008 2.078-5.368 0-9.72-4.352-9.72-9.721C.004 4.352 4.356 0 9.724 0c2.268 0 4.355.777 6.008 2.079-2.26 1.78-3.713 4.542-3.713 7.643" transform="translate(-66 -56) translate(66 56) matrix(1 0 0 -1 .135 20.443) translate(.243)"/>
                        <path fill="#F79E1B" d="M31.462 9.722C31.462 4.352 27.11 0 21.74 0c-2.268 0-4.354.777-6.008 2.079 2.261 1.78 3.713 4.542 3.713 7.643 0 3.1-1.452 5.862-3.713 7.643 1.654 1.301 3.74 2.078 6.008 2.078 5.369 0 9.72-4.352 9.72-9.721M31.158 3.698v.377h-.098l-.114-.26-.113.26h-.098v-.377h.069v.284l.106-.245h.072l.107.246v-.285h.07zm-.624 0v.313h.127v.063h-.322v-.063h.126v-.313h.07" transform="translate(-66 -56) translate(66 56) matrix(1 0 0 -1 .135 20.443) translate(.243)"/>
                    </g>
                </g>
            </g>
        </g>
    </g>
</svg>
