<svg fill="none" height="24" viewBox="0 0 24 24" width="24" xmlns="http://www.w3.org/2000/svg"><path d="m12.0722 17.8252c.285 0 .5334-.106.745-.3181.2115-.2121.3173-.4636.3173-.7547s-.106-.5394-.318-.7449c-.2121-.2056-.463-.3084-.7528-.3084-.2897 0-.538.1027-.7449.3079-.2069.2053-.3103.4566-.3103.7539 0 .2864.1042.5353.3128.7469s.4589.3174.7509.3174zm-.0638 4.5283c-1.4368 0-2.78264-.27-4.03769-.8099-1.25503-.5399-2.35288-1.2802-3.29353-2.2208-.94063-.9407-1.6809-2.0385-2.22082-3.2935-.53992-1.2549-.80988-2.6015-.80988-4.0396 0-1.4382.26996-2.78538.80988-4.04166.53992-1.25629 1.27946-2.35083 2.21862-3.28363.93915-.9328 2.03657-1.67126 3.29225-2.2154 1.25567-.54413 2.60297-.8162 4.04187-.8162 1.439 0 2.7871.2717 4.0445.8151s2.3522 1.28088 3.2843 2.21243 1.67 2.02698 2.2137 3.2863c.5437 1.25931.8156 2.60826.8156 4.04696 0 1.438-.2721 2.7844-.8162 4.0393-.5442 1.2549-1.2826 2.3506-2.2154 3.287s-2.0281 1.6761-3.2857 2.2191-2.6048.8145-4.0415.8145zm.0039-1.9805c2.3206 0 4.2942-.8144 5.9206-2.4433 1.6265-1.6288 2.4397-3.6095 2.4397-5.942 0-2.32064-.8117-4.29419-2.435-5.92064s-3.605-2.43967-5.9449-2.43967c-2.31703 0-4.29058.81166-5.92067 2.435-1.63006 1.62331-2.4451 3.60495-2.4451 5.94491 0 2.317.81444 4.2906 2.4433 5.9206 1.62887 1.6301 3.60955 2.4451 5.94207 2.4451zm.0288-12.64669c.4465 0 .8403.1397 1.1816.4191.3412.2794.5118.63159.5118 1.05655 0 .40167-.1186.75428-.3558 1.05784-.2373.3035-.506.5793-.8061.8274-.3833.326-.719.6872-1.0071 1.0835-.288.3963-.432.8362-.432 1.3197 0 .2073.0799.3733.2396.4979.1598.1246.3462.1869.5593.1869.2282 0 .4198-.0761.5746-.2282.1548-.1522.265-.3377.3308-.5566.0594-.3217.1855-.6126.3782-.8727s.4236-.4953.6928-.7056c.4034-.3275.7337-.7215.991-1.182.2572-.4605.3858-.94725.3858-1.46026 0-.85149-.3078-1.56817-.9233-2.15005-.6156-.58189-1.3459-.87283-2.1908-.87283-.6279 0-1.223.13206-1.7851.39618-.56211.26413-1.0323.64729-1.41057 1.14947-.12608.1855-.1829.38808-.17044.60773s.10815.39751.28707.53357c.21852.14275.44619.18678.68302.13208.23682-.05472.43262-.18316.58732-.38533.1937-.2607.4377-.46826.7322-.6227.2944-.15443.6098-.23165.9461-.23165z" fill="#72f7ea"/></svg>