<svg fill="none" height="24" viewBox="0 0 120 24" width="120" xmlns="http://www.w3.org/2000/svg"><g fill="#f4b73f"><path d="m12.0019 18.2749-4.4748 2.7c-.15.1-.3084.1418-.4752.1254-.1668-.0168-.3168-.0668-.45-.15-.1332-.1-.2332-.225-.3-.375s-.0752-.3168-.0252-.5004l1.1754-5.1-3.9504-3.45c-.15-.1164-.2416-.2538-.2748-.4122s-.0248-.3126.0252-.4626.1332-.275.2496-.375c.1168-.1.2752-.1666.4752-.1998l5.2248-.45001 2.025-4.8252c.0668-.1668.1752-.2918.3252-.375s.3-.1248.45-.1248.3.0416.45.1248.2584.2082.3252.375l2.025 4.8252 5.2248.45001c.2.0332.3584.0998.4752.1998.1164.1.1996.225.2496.375s.0584.3042.0252.4626-.1248.2958-.2748.4122l-3.9504 3.45 1.1754 5.1c.05.1836.0416.3504-.0252.5004s-.1668.275-.3.375c-.1332.0832-.2832.1332-.45.15-.1668.0164-.3252-.0254-.4752-.1254z"/><path d="m36.0019 18.2749-4.4748 2.7c-.15.1-.3084.1418-.4752.1254-.1668-.0168-.3168-.0668-.45-.15-.1332-.1-.2332-.225-.3-.375s-.0752-.3168-.0252-.5004l1.1754-5.1-3.9504-3.45c-.15-.1164-.2416-.2538-.2748-.4122s-.0248-.3126.0252-.4626.1332-.275.2496-.375c.1168-.1.2752-.1666.4752-.1998l5.2248-.45001 2.025-4.8252c.0668-.1668.1752-.2918.3252-.375s.3-.1248.45-.1248.3.0416.45.1248.2584.2082.3252.375l2.025 4.8252 5.2248.45001c.2.0332.3584.0998.4752.1998.1164.1.1996.225.2496.375s.0584.3042.0252.4626-.1248.2958-.2748.4122l-3.9504 3.45 1.1754 5.1c.05.1836.0416.3504-.0252.5004s-.1668.275-.3.375c-.1332.0832-.2832.1332-.45.15-.1668.0164-.3252-.0254-.4752-.1254z"/><path d="m60.0019 18.2749-4.4748 2.7c-.15.1-.3084.1418-.4752.1254-.1668-.0168-.3168-.0668-.45-.15-.1332-.1-.2332-.225-.3-.375s-.0752-.3168-.0252-.5004l1.1754-5.1-3.9504-3.45c-.15-.1164-.2416-.2538-.2748-.4122s-.0248-.3126.0252-.4626.1332-.275.2496-.375c.1168-.1.2752-.1666.4752-.1998l5.2248-.45001 2.025-4.8252c.0668-.1668.1752-.2918.3252-.375s.3-.1248.45-.1248.3.0416.45.1248.2584.2082.3252.375l2.025 4.8252 5.2248.45001c.2.0332.3584.0998.4752.1998.1164.1.1996.225.2496.375s.0584.3042.0252.4626-.1248.2958-.2748.4122l-3.9504 3.45 1.1754 5.1c.05.1836.0416.3504-.0252.5004s-.1668.275-.3.375c-.1332.0832-.2832.1332-.45.15-.1668.0164-.3252-.0254-.4752-.1254z"/><path d="m84.0019 18.2749-4.4748 2.7c-.15.1-.3084.1418-.4752.1254-.1668-.0168-.3168-.0668-.45-.15-.1332-.1-.2332-.225-.3-.375s-.0752-.3168-.0252-.5004l1.1754-5.1-3.9504-3.45c-.15-.1164-.2416-.2538-.2748-.4122s-.0248-.3126.0252-.4626.1332-.275.2496-.375c.1168-.1.2752-.1666.4752-.1998l5.2248-.45001 2.025-4.8252c.0668-.1668.1752-.2918.3252-.375s.3-.1248.45-.1248.3.0416.45.1248.2584.2082.3252.375l2.025 4.8252 5.2248.45001c.2.0332.3584.0998.4752.1998.1164.1.1996.225.2496.375s.0584.3042.0252.4626-.1248.2958-.2748.4122l-3.9504 3.45 1.1754 5.1c.05.1836.0416.3504-.0252.5004s-.1668.275-.3.375c-.1332.0832-.2832.1332-.45.15-.1668.0164-.3252-.0254-.4752-.1254z"/><path d="m108.002 18.2749-4.475 2.7c-.15.1-.308.1418-.475.1254-.167-.0168-.317-.0668-.45-.15-.133-.1-.233-.225-.3-.375s-.075-.3168-.025-.5004l1.175-5.1-3.9503-3.45c-.15-.1164-.2416-.2538-.2748-.4122s-.0248-.3126.0252-.4626.1332-.275.2496-.375c.1168-.1.2752-.1666.4752-.1998l5.2251-.45001 2.025-4.8252c.067-.1668.175-.2918.325-.375s.3-.1248.45-.1248.3.0416.45.1248.258.2082.325.375l2.025 4.8252 5.225.45001c.2.0332.358.0998.475.1998s.2.225.25.375.058.3042.025.4626-.125.2958-.275.4122l-3.95 3.45 1.175 5.1c.05.1836.042.3504-.025.5004s-.167.275-.3.375c-.133.0832-.283.1332-.45.15-.167.0164-.325-.0254-.475-.1254z"/></g></svg>