<svg fill="none" height="19" viewBox="0 0 24 19" width="24" xmlns="http://www.w3.org/2000/svg" xmlns:xlink="http://www.w3.org/1999/xlink"><clipPath id="a"><path d="m0 .5h24v18h-24z"/></clipPath><g clip-path="url(#a)"><path d="m0 .5h24v18h-24z" fill="#012169"/><path d="m2.8125.5 9.15 6.7875 9.1125-6.7875h2.925v2.325l-9 6.7125 9 6.675v2.2875h-3l-9-6.7125-8.9625 6.7125h-3.0375v-2.25l8.9625-6.675-8.9625-6.675v-2.4z" fill="#fff"/><path d="m15.9 11.0375 8.1 5.9625v1.5l-10.1625-7.4625zm-6.9.75.225 1.3125-7.2 5.4h-2.025zm15-11.2875v.1125l-9.3375 7.05.075-1.65 7.3875-5.5125zm-24 0 8.9625 6.6h-2.25l-6.7125-5.025z" fill="#c8102e"/><path d="m9.0375.5v18h6v-18zm-9.0375 6v6h24v-6z" fill="#fff"/><path d="m0 7.7375v3.6h24v-3.6zm10.2375-7.2375v18h3.6v-18z" fill="#c8102e"/></g><path d="m.5 1h23v17h-23z" stroke="#fff"/></svg>