<svg width="19" height="22" viewBox="0 0 19 22" fill="none" xmlns="http://www.w3.org/2000/svg">
<path fill-rule="evenodd" clip-rule="evenodd" d="M9.5 0C12.4823 0 14.9 2.41766 14.9 5.4V8.4011C16.1271 8.40732 16.8163 8.44893 17.362 8.72698C17.9265 9.0146 18.3854 9.47354 18.673 10.038C19 10.6798 19 11.5198 19 13.2V16.6C19 18.2802 19 19.1202 18.673 19.762C18.3854 20.3265 17.9265 20.7854 17.362 21.073C16.7202 21.4 15.8802 21.4 14.2 21.4H4.8C3.11984 21.4 2.27976 21.4 1.63803 21.073C1.07354 20.7854 0.614601 20.3265 0.32698 19.762C0 19.1202 0 18.2802 0 16.6V13.2C0 11.5198 0 10.6798 0.32698 10.038C0.614601 9.47354 1.07354 9.0146 1.63803 8.72698C2.27976 8.4 3.11984 8.4 4.8 8.4H13.1V5.4C13.1 3.41178 11.4882 1.8 9.5 1.8C7.51178 1.8 5.9 3.41178 5.9 5.4V5.5C5.9 5.99706 5.49706 6.4 5 6.4C4.50294 6.4 4.1 5.99706 4.1 5.5V5.4C4.1 2.41766 6.51766 0 9.5 0ZM10.5 15.6324C11.0978 15.2866 11.5 14.6403 11.5 13.9C11.5 12.7954 10.6046 11.9 9.5 11.9C8.39543 11.9 7.5 12.7954 7.5 13.9C7.5 14.6403 7.9022 15.2866 8.5 15.6324V17.4C8.5 17.9523 8.94771 18.4 9.5 18.4C10.0523 18.4 10.5 17.9523 10.5 17.4V15.6324Z" fill="white"/>
</svg>
