<svg xmlns="http://www.w3.org/2000/svg" xmlns:xlink="http://www.w3.org/1999/xlink" width="32" height="12" viewBox="0 0 32 12">
    <defs>
        <linearGradient id="e7vtb9irjc" x1="0%" x2="100%" y1="50%" y2="50%">
            <stop offset="0%" stop-color="#222357"/>
            <stop offset="100%" stop-color="#254AA5"/>
        </linearGradient>
        <path id="b0xppezfma" d="M15.844 10.152L13.706.156H11.12l2.139 9.996h2.585zm10.88-6.454l1.36 3.753.784-3.753h-2.145zM29.607.156H32l-2.088 9.996h-2.207c-.496 0-.914-.289-1.1-.733L22.725.156h2.714l.54 1.494h3.317l.312-1.494zM22.86 3.42c.012 2.638-3.647 2.783-3.622 3.962.008.358.35.74 1.096.837.37.048 1.392.086 2.55-.447l.454 2.12c-.623.225-1.423.443-2.42.443-2.555 0-4.354-1.36-4.368-3.304-.017-1.44 1.284-2.242 2.264-2.72 1.007-.49 1.344-.805 1.34-1.243-.007-.67-.803-.967-1.547-.978-1.3-.02-2.054.351-2.656.631l-.468-2.19C16.086.254 17.201.01 18.358 0c2.716 0 4.493 1.341 4.501 3.42m-10.71 6.732L7.96.156H5.227L3.165 8.133c-.125.491-.234.672-.614.878-.622.338-1.648.654-2.551.85l.06.29h4.401c.56 0 1.065-.372 1.192-1.018l1.09-5.784 2.69 6.803h2.716z"/>
    </defs>
    <g fill="none" fill-rule="evenodd">
        <g>
            <g>
                <g transform="translate(-176 -61) translate(176 61) matrix(1 0 0 -1 0 11.446)">
                    <mask id="a8ghtp0exb" fill="#fff">
                        <use xlink:href="#b0xppezfma"/>
                    </mask>
                    <g fill="url(#e7vtb9irjc)" fill-rule="nonzero" mask="url(#a8ghtp0exb)">
                        <path d="M15.844 10.152L13.706.156H11.12l2.139 9.996h2.585zm10.88-6.454l1.36 3.753.784-3.753h-2.145zM29.607.156H32l-2.088 9.996h-2.207c-.496 0-.914-.289-1.1-.733L22.725.156h2.714l.54 1.494h3.317l.312-1.494zM22.86 3.42c.012 2.638-3.647 2.783-3.622 3.962.008.358.35.74 1.096.837.37.048 1.392.086 2.55-.447l.454 2.12c-.623.225-1.423.443-2.42.443-2.555 0-4.354-1.36-4.368-3.304-.017-1.44 1.284-2.242 2.264-2.72 1.007-.49 1.344-.805 1.34-1.243-.007-.67-.803-.967-1.547-.978-1.3-.02-2.054.351-2.656.631l-.468-2.19C16.086.254 17.201.01 18.358 0c2.716 0 4.493 1.341 4.501 3.42m-10.71 6.732L7.96.156H5.227L3.165 8.133c-.125.491-.234.672-.614.878-.622.338-1.648.654-2.551.85l.06.29h4.401c.56 0 1.065-.372 1.192-1.018l1.09-5.784 2.69 6.803h2.716"/>
                    </g>
                </g>
            </g>
        </g>
    </g>
</svg>
