<svg fill="none" height="40" viewBox="0 0 106 40" width="106" xmlns="http://www.w3.org/2000/svg"><path clip-rule="evenodd" d="m38.0302 12.1912.0019 11.9141 2.8494-.0004 2.8493-.0005-.0007-4.5824c-.0005-3.0243-.0008-4.674-.0008-4.8573.0889-.4582.1779-.9165.445-1.2831.356-.6416.9793-.9166 1.6916-.8251.9795.0915 1.6029.6413 1.7812 1.8327 0 .1833.0003 2.0162.0008 4.9489l.0008 4.674 2.8493-.0004 2.8494-.0005-.0009-5.4988c-.0008-4.6741-.0009-5.5905-.09-6.0487-.1784-1.6497-.7129-2.93264-1.6925-3.84896-.8015-.82469-1.781-1.28277-2.9386-1.46587-.4452-.09158-1.6918.00027-2.048.09198-1.0684.27511-1.8698.64183-2.582 1.46677l-.4451.36666-.0007-4.39906-.0007-4.399072-2.8494.000464-2.8494.000463.002 11.914125zm60.5469-11.740705c-.178.366618-5.9634 14.756205-5.9634 14.756205s1.5137-.0003 3.3836-.0006l3.3836-.0005 3.0261-7.42395c1.691-4.1244 3.026-7.515565 3.026-7.515565s-1.513.000246-3.383.00055l-3.3839.000551zm-73.0137 6.793765c-1.2465.1835-2.226.55025-3.2053 1.19194-1.9587 1.28338-3.205 3.4831-3.5607 6.0493-.1779 1.1914-.0886 2.6578.1787 3.7575.7128 2.841 2.583 5.0402 4.9873 5.8646.8905.2748 1.2466.3664 2.3152.3662.8013-.0001 1.0685-.0001 1.3356-.0918 1.1575-.2752 1.9588-.7335 2.671-1.4668l.3561-.3667.0001.7332.0002.7332 2.7603-.0005 2.7603-.0004-.0013-8.2483-.0014-8.24822-2.7603.00045-2.7603.00045.0001.73318.0001.73318-.2672-.2749c-.6234-.73308-1.5139-1.19117-2.6715-1.46592-.3561-.09159-.5342-.09156-1.2466-.09145-.4452.09172-.8013.09178-.8904.09179zm36.3293-.0059c-1.5137.18354-3.1163.91697-4.2737 1.83364-2.2258 1.9249-3.3828 4.9495-2.9371 8.0654.4458 3.4826 2.8504 6.1399 6.2341 7.0559.7124.1831 1.4247.2747 2.3152.2745 1.6027-.0002 2.7602-.2754 4.0067-.9171 2.493-1.2835 4.0954-3.5749 4.4511-6.416.0889-.7332.0887-1.9246-.0004-2.5662-.1783-1.3746-.7128-2.7493-1.5144-3.8489-.3562-.4582-1.0687-1.28288-1.514-1.6494-1.2467-1.00792-2.6715-1.64922-4.2743-1.83225-.6233-.09155-1.8699-.09134-2.4932.00041zm18.1647-.00296c-1.5137.18354-3.0273.82532-4.1847 1.83363-.4452.36666-1.2464 1.19157-1.5135 1.64987-.8012 1.0999-1.2462 2.4747-1.5131 3.8495-.0889.6415-.0887 1.9246.0004 2.5661.5349 3.6658 3.1176 6.5064 6.6794 7.239.7124.1832 1.0685.1831 1.8699.183 1.5138-.0002 2.8493-.2754 4.0958-1.0088 3.2943-1.7418 5.0745-5.5913 4.2725-9.532-.7129-3.6658-3.5627-6.32306-7.2135-6.7807-.6234-.09155-1.8699-.09135-2.4932.0004zm-79.692927.37955s1.514327 3.75725 3.384967 8.33935 3.38497 8.3393 3.38497 8.3393-.53403 1.3748-1.2461 3.0246-1.24612 2.9329-1.24611 3.0246c.00002.0916 1.33564-.0002 3.02745-.0005l3.02745-.0005 4.5393-11.2734c2.4922-6.2324 4.5393-11.27331 4.5393-11.36496 0 0-.6233-.09155-3.0274.00049l-3.0274.00049-1.8692 4.76598c-.8009 2.5662-1.602 4.7659-1.602 4.7659s-.80169-2.1994-1.87062-4.7653l-1.78162-4.76542-3.11649.00051c-1.69182-.09137-3.116497-.09114-3.116497-.09114zm27.960127 4.94445c1.1576.2747 2.0482 1.191 2.4045 2.3824.0891.4582.0893 1.283.0003 1.7413-.2669 1.1915-1.1572 2.1081-2.3147 2.3832-.4452.0917-1.2466.0918-1.6918.0003-.9795-.2748-1.8701-1.0078-2.2264-1.9243-.4454-1.008-.2675-2.2911.2666-3.2077.8012-1.1915 2.1368-1.65 3.5615-1.3752zm35.5279.0858c1.2467.1831 2.2263 1.1911 2.4936 2.4741.0891.4582.0893 1.1914.0003 1.6496-.2669 1.1915-1.1572 2.0165-2.2257 2.3832-.3561.0917-1.3356.0919-1.6918.0003-.8905-.2748-1.6029-.9162-2.0482-1.741-.2673-.5498-.2673-.8247-.2674-1.4663-.0001-.5499.0889-.8248.2669-1.2831.267-.5499.6231-1.0998 1.1573-1.4665.5342-.55 1.4246-.7334 2.315-.5503zm18.0756-.0029c1.0686.1831 1.9591.9161 2.3155 1.9242.1781.4582.2672.7331.2673 1.283.0001.6416-.0889.9165-.2669 1.4664-.356.8249-1.1573 1.4666-2.0477 1.7416-.3561.0918-1.3356.0919-1.6918.0003-1.0685-.2747-1.9591-1.1911-2.2264-2.3824-.0892-.4583-.0893-1.2831-.0003-1.7413.3559-1.4665 1.6023-2.4748 3.027-2.475.1781.0916.4452.0916.6233.1832zm12.1105 4.0305c-1.6918.1836-2.9382 1.4668-3.2941 3.1165-.089.4583-.0888 1.2831.0003 1.7413.3564 1.4663 1.4251 2.4743 2.8498 2.8406.1781 0 .5343.0916.8014.0916 1.0685-.0002 1.9589-.367 2.6711-1.1002.8012-.825 1.0682-1.6499 1.0681-2.7496-.0003-1.3747-.6238-2.5661-1.6924-3.2074-.7124-.6414-1.6919-.8246-2.4042-.7328zm-46.9239 8.9891c-1.1575.3667-1.6915 1.7415-1.0681 2.7495.1781.275.5344.6415.8015.7331.2672.0916.2672.0916.8014.0915.4452-.0001.5343-.0001.8014-.0918.3561-.1833.7122-.55.8903-.9166.445-.9165-.0004-2.0162-.8909-2.4743-.2671-.1833-.3562-.1833-.7123-.1832-.3562.0001-.4453.0001-.6233.0918zm-4.8083.0924c-1.5137.2752-2.493 1.2835-2.9379 2.9332-.089.2749-.089.5499-.0889.9165l.0001.6415-.6233.0001-.6233.0001.0002 1.3747.0002 1.3747.6233-.0001.6233-.0001.0006 3.2993.0005 3.2993 1.6918-.0003 1.6918-.0002-.0005-3.2993-.0006-3.2993 1.1576-.0002 1.1576-.0002-.0003-1.3747-.0002-1.3747-1.1575.0002-1.1576.0001v-.2749c.0889-.6415.3559-1.0998.8902-1.1916.3561-.0917.8904-.0917 1.2466.0915.1781.0916.2671.0916.2671.0916s-.0001-.6415-.0002-1.4664l-.0002-1.4663-.2672-.0916c-.3562-.1833-.8014-.1832-1.4247-.1831-.4452-.0916-.8014.0001-1.0685.0002zm13.5352 4.3052c-.7124.1834-1.2466.5501-1.6027 1.0084l-.178.275-.0001-.5499-.0001-.5499-1.6918.0003-1.6918.0002.0008 4.6741.0007 4.674 1.6918-.0003 1.6919-.0003-.0005-2.5661c-.0002-1.4664-.0004-2.6578-.0004-2.8411.089-.3666.267-.7332.445-.9165.4452-.3667 1.2466-.2752 1.6028.183.2672.3666.2672.3666.2677 3.2993l.0004 2.7494 1.6918-.0003 1.6918-.0003-.0005-3.116c-.0005-3.2993-.0006-3.6659-.1787-4.3074-.1782-.5498-.3564-1.008-.8016-1.3745-.3563-.3666-.7125-.6415-1.2468-.733-.4452.0001-1.3356.0002-1.6917.0919zm8.459-.093c-.5343.0917-1.3356.3668-1.7808.7334-.9793.7334-1.6024 1.8333-1.8693 3.208-.089.5499-.0888 1.558.0003 2.1079.1782.8248.4455 1.6496.8908 2.1994.6234.8247 1.4249 1.3745 2.4044 1.5576.5343.0916 1.4247.0914 1.8699-.092.5342-.1833.8903-.3667 1.3355-.7334l.3561-.3666.0001.4582v.4583l1.6918-.0003 1.6919-.0003-.0008-4.674-.0008-4.674-1.6918.0003-1.6918.0003.0001.4582.0001.4582-.2672-.0916c-.4453-.4581-1.0686-.8246-1.781-.9162-.2671-.0916-.8904-.0915-1.1575-.0914zm12.9111.0895c-.6233.0918-1.2465.5501-1.6026 1.0084l-.178.1833-.0001-.5499-.0001-.5498-1.6918.0002-1.6918.0003.0007 4.674.0008 4.674 1.6918-.0002 1.6918-.0003-.0004-2.6578c-.0005-2.841-.0005-2.841.1775-3.2993.1781-.3666.5342-.55.8904-.55.3561-.0001.5342.0915.8014.2748.3562.3665.3562.2749.3567 3.3909l.0005 2.7494 1.6918-.0003 1.6918-.0003-.0006-3.3909c-.0005-3.391-.0005-3.391-.0896-3.7575-.0891-.1833-.1782-.5499-.2673-.8248-.1781-.3666-.2672-.4582-.5344-.7331-.3562-.3665-.6234-.5498-.9796-.733-.6233.0001-1.3356-.0915-1.9589.0919zm8.8152-.0014c-1.5137.2752-2.6711 1.0086-3.3832 2.2917-.178.3666-.356.8249-.5341 1.2832-.0889.4582-.0889.5499-.0888 1.2831.0001.8248.0002 1.0997.2674 1.7412.5345 1.5579 1.7813 2.7491 3.4732 3.1154.2671.0917.5342.0916 1.1575.0915.8905-.0001 1.2466-.0918 1.8699-.3669l.3561-.1833-.0002-1.558-.0003-1.558-.2671.1833c-.4452.275-.7123.3667-1.2465.3668-.5343.0001-.8014.0001-1.1576-.1831-.3562-.1833-.6234-.4582-.8015-.8247-.0891-.2749-.0891-.2749-.0892-.7332 0-.3666-.0001-.4582.0889-.7332.2671-.7332.8903-1.0999 1.7807-1.1917.6233-.0001.8904-.0001 1.7809.458 0 0-.0001-.7332-.0002-1.558l-.0003-1.558-.2671-.0916c-.9796-.3665-2.0481-.4579-2.9385-.2745zm7.6577-.0012c-2.5822.4586-4.1846 2.7501-4.0061 5.4078.0892.9164.3565 1.7412.8018 2.3827.6235 1.008 1.603 1.6494 2.8497 1.9241.5343.0916 1.9589.0913 2.5822-.0004.8904-.1834 1.6917-.6418 2.3149-1.2834.2671-.275.7122-.9166.7122-.9166s-.6233-.2749-1.4248-.5497l-1.4247-.5496-.1781.1833c-.2671.275-.4451.3667-.8013.4584-.9794.2751-1.959-.2747-2.1372-1.1911v-.1833l3.1164-.0005 3.1165-.0005-.0001-.8248c-.0001-.5499-.0002-.9165-.0892-1.0998-.1783-1.0997-.6236-1.8328-1.247-2.5659-.6234-.6414-1.3358-1.0079-2.3153-1.1911-.3562-.0915-1.4247-.0914-1.8699.0004zm-47.726 4.865.0008 4.674 1.6918-.0002 1.6918-.0003-.0008-4.674-.0007-4.674-1.6918.0002-1.6918.0003zm49.062-2.2991c.2672.0916.3562.1832.6234.3664.1781.1833.3562.3666.3563.6415v.1833l-1.5137.0003c-1.6918.0002-1.6028.0002-1.4248-.3664.2671-.6416 1.0684-1.0083 1.9588-.8251zm-28.7606.4629c.4452.0916.9796.5497 1.1577 1.0079.4454 1.008.0004 2.1995-1.0681 2.5663-.3561.0917-.8904.0918-1.2466.0002-.5343-.1832-1.0686-.6414-1.1577-1.1912-.0891-.275-.0891-.3666-.0892-.6415 0-.3666 0-.4583.178-.7332.356-.8249 1.2464-1.1917 2.2259-1.0085z" fill="#757780" fill-rule="evenodd"/></svg>